<svg xmlns="http://www.w3.org/2000/svg" xmlns:xlink="http://www.w3.org/1999/xlink" viewBox="0 0 1820 782.5" version="1.1">
  <path style="fill: none; stroke-width: 1.001; stroke-linecap: round; stroke-linejoin: round; stroke: rgb(0, 0, 0); stroke-opacity: 1; stroke-miterlimit: 10; transform-origin: 885.468px 379.008px;" d="M 911.53 408.1 C 1103.2 408.1 1317.17 493.287 1329.26 496.578 C 1332.16 497.367 1338.83 500.049 1338.8 504.036 C 1338.72 512.424 1317.29 521.758 1313.77 523.819 C 1295.71 534.381 1275.77 543.567 1259.45 556.86 C 1193.67 610.458 1202.47 718.126 1278.47 758.085 C 1286.71 762.416 1295.08 765.532 1304.07 767.94 C 1358.85 782.618 1392 758.075 1439.11 730.922 C 1491.72 700.599 1506.95 691.796 1562.26 659.821 C 1584.04 647.225 1605.82 634.624 1627.61 622.02 C 1646.1 611.318 1664.59 600.607 1683.08 589.901 C 1723.28 566.621 1773.32 544.51 1788.05 495.926 C 1802.9 446.061 1768.31 398.658 1745.12 358.355 C 1734.46 339.841 1723.8 321.328 1713.14 302.817 C 1700.58 281.008 1688.02 259.203 1675.44 237.402 C 1662.35 214.695 1649.26 191.988 1636.16 169.291 C 1625.56 150.937 1614.96 132.588 1604.35 114.241 C 1594.76 97.667 1583.79 75.22 1570.97 58.067 C 1549.92 29.927 1516.18 12.466 1481.21 10.526 C 1395.53 5.761 1331.8 93.16 1361.04 173.336 C 1368.49 193.75 1381.55 212.195 1392.24 230.938 C 1394.25 234.455 1408.16 253.294 1404.03 260.576 C 1402.06 264.048 1394.96 263.046 1392.04 262.275 C 1379.93 259.084 1135.38 172.402 909.486 172.402 C 689.576 172.402 439.884 258.926 427.775 262.124 C 424.863 262.885 417.746 263.904 415.785 260.431 C 411.661 253.124 425.546 234.331 427.569 230.784 C 437.929 212.606 450.602 194.677 458.086 175.012 C 488.26 95.698 426.8 6.855 341.004 10.257 C 331.704 10.618 322.894 12.112 313.906 14.514 C 259.127 29.195 242.696 67.021 215.472 114.096 C 185.065 166.667 176.278 181.905 144.368 237.242 C 131.797 259.05 119.236 280.854 106.675 302.659 C 96.006 321.179 85.356 339.694 74.697 358.211 C 51.522 398.469 19.247 442.641 30.777 492.08 C 42.848 542.688 96.501 566.448 136.739 589.753 C 155.228 600.458 173.707 611.165 192.205 621.862 C 213.986 634.468 235.767 647.07 257.556 659.666 C 280.25 672.783 302.935 685.903 325.636 699.008 C 343.983 709.607 362.347 720.192 380.711 730.776 C 397.301 740.338 418.026 754.292 437.708 762.732 C 470.003 776.583 507.955 774.831 539.206 759.031 C 615.788 720.315 627.285 612.76 561.867 557.948 C 545.211 543.992 524.676 534.55 506.046 523.663 C 502.551 521.621 481.086 512.26 481.019 503.889 C 480.989 499.898 487.64 497.215 490.555 496.422 C 502.639 493.131 720 408.1 911.53 408.1 Z"></path>
</svg>
