<svg xmlns="http://www.w3.org/2000/svg" xmlns:xlink="http://www.w3.org/1999/xlink"
  viewBox="0 0 1320 782.5" version="1.1">
  <path
    d="M 124.238 -266.7 C 72.287 -268.134 35.491 -222.477 2.602 -189.65 C -12.507 -174.569 -27.615 -159.487 -42.719 -144.4 C -60.513 -126.627 -78.303 -108.85 -96.09 -91.07 C -114.613 -72.554 -133.137 -54.038 -151.65 -35.512 C -166.62 -20.532 -181.581 -5.543 -196.54 9.449 C -210.056 22.995 -228.878 39.395 -242.11 56.219 C -263.823 83.826 -271.945 120.925 -264.78 155.191 C -247.223 239.159 -146.42 278.09 -76.621 229.102 C -58.849 216.629 -44.43 199.243 -29.109 184.07 C -26.235 181.224 -11.653 162.918 -3.559 165.02 C 0.299 166.022 1.168 173.14 1.18 176.16 C 1.232 188.68 1.248 201.199 1.27 213.719 C 1.396 285.624 1.401 353.44 1.449 426.719 C 1.482 478.156 1.505 529.594 1.551 581.031 C 1.569 600.948 1.631 620.864 1.641 640.781 C 1.691 739.531 1.677 838.281 1.73 937.031 C 1.755 983.902 40.27 1027.344 82.691 1042.1 C 94.226 1046.112 106.354 1048.299 118.559 1048.68 C 131.678 1049.089 145.034 1047.453 157.578 1043.53 C 201.972 1029.647 242.904 985.814 242.93 937.031 C 242.983 838.281 242.97 739.531 243.02 640.781 C 243.03 620.864 243.092 600.948 243.109 581.031 C 243.152 529.594 243.167 478.156 243.199 426.719 C 243.254 339.433 243.25 291.189 243.391 213.719 C 243.414 201.199 243.429 188.68 243.48 176.16 C 243.492 173.151 244.354 166.014 248.211 165.02 C 256.326 162.928 270.869 181.199 273.77 184.07 C 288.629 198.777 302.647 215.653 319.691 227.969 C 388.414 277.628 490.023 241.268 508.93 157.539 C 510.979 148.465 511.82 139.571 511.82 130.27 C 511.82 73.574 479.57 47.917 441.191 9.449 C 398.329 -33.511 385.9 -45.938 340.75 -91.07 C 322.963 -108.85 305.173 -126.627 287.379 -144.4 C 272.274 -159.487 257.161 -174.568 242.051 -189.65 C 209.197 -222.442 174.925 -265.046 124.238 -266.7"></path>
</svg>
