<svg xmlns="http://www.w3.org/2000/svg" viewBox="0 0 640 480">
  <defs>
    <clipPath id="a">
      <path d="M0 480h640V0H0Z" transform="matrix(1 0 0 -1 0 480)"/>
    </clipPath>
  </defs>
  <g clip-path="url(#a)" data-name="Layer 1">
    <path fill="#fff" d="M322.676 83.965c14.222-1.807 28.972-.896 42.529 3.956 10.246 3.696 19.924 10.06 25.783 19.423 3.716 5.859 5.557 12.82 5.475 19.746-.082 6.324.678 12.997-2.183 18.883-5.27 11.286-16.79 18.336-28.52 21.333 10.588 2.156 21.107 6.659 28.547 14.729 5.68 5.94 8.932 14.133 8.815 22.367-.13 7.987.8 16.2-1.78 23.92-3.435 11.019-11.696 19.985-21.497 25.809-13.812 8.31-30.278 11.197-46.226 10.767-13.38-.384-27.075-2.711-38.854-9.364-9.657-5.297-17.534-13.818-21.853-23.968-2.498-5.64-3.956-11.697-4.654-17.815 13.579 0 27.15 0 40.73.006.718 5.853 3.456 11.602 8.226 15.202 6.147 4.749 14.346 5.619 21.854 4.989 6.727-.582 13.777-3.442 17.48-9.377 3.497-5.324 3.53-11.93 3.388-18.068.19-5.667-1.827-11.587-6.201-15.351-5.338-4.662-12.545-6.352-19.431-6.961-6.331-.397-12.675-.096-19.013-.24-.09-9.684-.034-19.37-.027-29.047 8.179-.266 16.52.767 24.536-1.314 5.099-1.354 10.205-4.352 12.367-9.383 2.04-4.284 1.499-9.123 1.56-13.716-.02-4.236-1.183-8.733-4.318-11.758-4.277-4.284-10.683-5.42-16.514-5.277-5.757-.061-11.793 1.739-15.852 5.975-3.723 3.696-5.578 8.89-6.023 14.045-13.578.102-27.164.02-40.75.04.466-12.36 6.174-24.262 15.085-32.77 10.08-9.65 23.646-14.927 37.32-16.781m-81.773 277.572c6.899-.014 13.805.027 20.71-.014 4.436 17.637 8.918 35.275 13.25 52.94 4.703-17.638 9.336-35.289 14.01-52.933 6.667.028 13.333-.014 20.006.021.014 21.956 0 43.912 0 65.875a2901.19 2901.19 0 0 0-15.611.007c-.035-10.479-.007-20.958-.021-31.436-.041-3.552.15-7.118-.274-10.656-3.271 14.092-7.22 28.026-10.738 42.064-5.188.021-10.376.021-15.564.007-3.805-14.667-7.754-29.3-11.546-43.968-.2 14.648-.027 29.308-.082 43.961-4.716.021-9.432.021-14.147.007.007-21.956-.014-43.912.007-65.875m106.187 10.882c-2.245 9.438-4.483 18.883-6.66 28.342 4.497.034 9 .013 13.497.013-2.258-9.46-4.592-18.896-6.837-28.355m-29.78 54.986c6.298-21.95 12.56-43.912 18.83-65.868 7.309.13 14.72-.24 21.963.178 6.679 21.874 13.263 43.796 19.82 65.718-5.592-.021-11.184.007-16.77-.028a1295.52 1295.52 0 0 0-4.03-14.386c-6.57.013-13.147.034-19.718-.014-1.28 4.79-2.436 9.616-3.688 14.414-5.47 0-10.938.014-16.406-.014m67.435-65.855c5.996-.026 11.984-.013 17.98-.006 3.71 6.96 7.406 13.935 11.067 20.922 4.093-6.83 7.631-13.982 11.525-20.93 5.804-.006 11.61.008 17.412 0-6.208 9.898-12.498 19.753-18.698 29.657 6.912 12.08 13.84 24.153 20.778 36.212-6.193.028-12.394.028-18.588-.006-3.914-7.783-7.946-15.502-11.868-23.278a9.239 9.239 0 0 0-.923-1.321c-4.19 8.24-8.542 16.392-12.745 24.619-6.043.007-12.093-.007-18.143.014 6.98-11.588 13.9-23.223 20.833-34.837-6.214-10.35-12.415-20.697-18.63-31.045"/>
    <path fill="#7fc5de" d="M110.165 57.546c22.544-13.51 45.035-27.144 67.565-40.688.02 104.592-.068 209.185.04 313.777-10.292 6.262-20.647 12.436-30.955 18.684-12.387 7.38-24.64 14.996-37.102 22.237.117-102.484.014-204.976.048-307.46.15-2.17-.492-4.504.404-6.55"/>
    <path fill="#39a5cc" d="M322.676 83.965c-13.675 1.854-27.24 7.13-37.321 16.782-8.911 8.507-14.62 20.409-15.085 32.77 13.586-.021 27.172.06 40.75-.041.445-5.154 2.3-10.35 6.023-14.045 4.059-4.236 10.095-6.036 15.852-5.975 5.83-.143 12.237.993 16.514 5.277 3.135 3.025 4.298 7.522 4.319 11.758-.062 4.593.479 9.432-1.561 13.716-2.162 5.03-7.268 8.029-12.367 9.383-8.015 2.08-16.357 1.048-24.536 1.314-.007 9.678-.062 19.363.027 29.047 6.338.144 12.682-.157 19.013.24 6.886.609 14.093 2.299 19.43 6.96 4.375 3.765 6.393 9.685 6.202 15.352.143 6.139.109 12.744-3.388 18.068-3.703 5.935-10.753 8.795-17.48 9.377-7.508.63-15.707-.24-21.854-4.99-4.77-3.6-7.508-9.348-8.226-15.201-13.58-.006-27.151-.006-40.73-.006.698 6.118 2.156 12.175 4.654 17.815 4.319 10.15 12.196 18.67 21.853 23.968 11.779 6.653 25.474 8.98 38.854 9.364 15.948.43 32.414-2.457 46.226-10.767 9.8-5.824 18.062-14.79 21.498-25.81 2.58-7.72 1.649-15.932 1.779-23.92.117-8.233-3.134-16.425-8.815-22.366-7.44-8.07-17.96-12.573-28.547-14.73 11.73-2.996 23.25-10.046 28.52-21.332 2.86-5.886 2.1-12.56 2.183-18.883.082-6.926-1.76-13.887-5.475-19.746-5.86-9.362-15.537-15.727-25.783-19.423-13.557-4.852-28.307-5.763-42.53-3.956M177.73 16.858c99.624-.027 199.248 0 298.87-.014 6.134-.082 12.204 2.519 16.455 6.927 3.99 4.174 6.392 9.882 6.344 15.679.048 15.708-.007 31.422.027 47.129.056 81.323.056 162.645 0 243.967-107.213.186-214.434.007-321.655.09-.11-104.593-.02-209.186-.041-313.778"/>
    <path fill="#36687f" d="M384.745 361.55c6.215 10.349 12.416 20.697 18.63 31.046-6.933 11.614-13.853 23.249-20.833 34.837 6.05-.021 12.1-.007 18.143-.014 4.203-8.227 8.555-16.38 12.745-24.62.341.405.65.85.923 1.322 3.922 7.776 7.954 15.495 11.868 23.278 6.194.034 12.395.034 18.588.006a17154.155 17154.155 0 0 1-20.778-36.212c6.2-9.904 12.49-19.76 18.698-29.656-5.803.007-11.608-.007-17.412 0-3.894 6.947-7.432 14.099-11.525 20.929a3338.396 3338.396 0 0 0-11.068-20.922c-5.995-.007-11.983-.02-17.979.007m-67.435 65.854c5.468.028 10.937.014 16.406.014 1.252-4.798 2.41-9.623 3.688-14.414 6.57.048 13.148.027 19.718.014a1295.52 1295.52 0 0 1 4.031 14.386c5.585.035 11.177.007 16.77.028-6.558-21.922-13.142-43.844-19.822-65.718-7.24-.418-14.653-.048-21.962-.178-6.27 21.956-12.533 43.919-18.829 65.868m-76.408-65.868c-.02 21.963 0 43.919-.007 65.875 4.715.014 9.431.014 14.146-.007.056-14.653-.116-29.313.083-43.96 3.791 14.668 7.741 29.3 11.546 43.967 5.188.014 10.376.014 15.563-.007 3.518-14.038 7.468-27.972 10.74-42.064.423 3.538.231 7.105.272 10.656.015 10.479-.013 20.957.021 31.436 5.202-.021 10.41-.014 15.612-.007 0-21.963.013-43.92 0-65.875-6.673-.034-13.34.007-20.006-.021-4.674 17.644-9.308 35.295-14.01 52.933-4.332-17.665-8.815-35.303-13.25-52.94-6.906.042-13.81 0-20.71.014M499.426 86.579c10.294-.027 20.594 0 30.887-.013.007 125.522.022 251.044-.006 376.566-119.177-.007-238.355-.007-357.532 0-4.202.116-8.542-.09-12.409-1.91-8.062-3.456-13.647-11.901-13.544-20.69-.02-30.41 0-60.81-.007-91.212 10.307-6.248 20.662-12.422 30.956-18.684 107.221-.083 214.442.096 321.655-.09.055-81.322.055-162.644 0-243.967"/>
    <path fill="#36687f" d="M347.089 372.419c2.245 9.459 4.579 18.896 6.837 28.355-4.496 0-9 .02-13.496-.013 2.176-9.46 4.414-18.904 6.659-28.342"/>
  </g>
</svg>
