<svg fill="currentColor" style="flex:none;line-height:1" viewBox="0 0 24 24">
  <path fill="#F15A29" fill-rule="evenodd" d="M14.121 2.701a9.299 9.299 0 0 0 0 18.598V22.7c-5.91 0-10.7-4.791-10.7-10.701s4.789-10.7 10.699-10.7V2.7zm4.752 3.677A7.353 7.353 0 1 0 9.42 17.643l-.901 1.074a8.754 8.754 0 0 1-1.08-12.334 8.755 8.755 0 0 1 12.335-1.08l-.901 1.075zm-2.255.844a5.407 5.407 0 0 0-5.048 9.563l-.656 1.24a6.81 6.81 0 0 1 6.358-12.043l-.654 1.24zM14.12 8.539a3.46 3.46 0 1 0 0 6.922v1.402a4.863 4.863 0 0 1 0-9.726v1.402z" clip-rule="evenodd"/>
  <path d="M15.407 10.836a2.24 2.24 0 0 0-.51-.409 1.084 1.084 0 0 0-.544-.152 1.61 1.61 0 0 0-.684.14 1.58 1.58 0 0 0-.84.912c-.074.203-.11.416-.11.631 0 .218.036.43.11.631a1.594 1.594 0 0 0 .84.913c.2.093.43.14.684.14.216 0 .417-.046.602-.135.188-.09.35-.225.475-.392l.928 1.006c-.14.14-.3.261-.482.363a3.367 3.367 0 0 1-1.083.38 2.99 2.99 0 0 1-.44.04 3.315 3.315 0 0 1-1.182-.21 2.825 2.825 0 0 1-.961-.597 2.816 2.816 0 0 1-.644-.929 2.987 2.987 0 0 1-.238-1.21 3 3 0 0 1 .238-1.21c.15-.35.368-.666.643-.929a2.85 2.85 0 0 1 .962-.596 3.315 3.315 0 0 1 1.182-.21c.355 0 .712.068 1.072.204.361.138.685.36.944.649l-.962.97z"/>
</svg>
