<svg xmlns="http://www.w3.org/2000/svg" fill="none" viewBox="0 0 472 394">
    <path fill="#F1A42B" d="M226.5 289.193c-68.6-2.4-162.2-34.6-181.6-81.2-16.9-42.5-.3-92 78.8-127.2 46.9-20.3 117.9-26.1 172.6-21.1 77.7 7.2 151.7 48.6 151.8 48.7l.1 58.2v3.9s-24.1-22.5-54.2-40.6c-28.3-17.1-54.3-29.1-105.8-33.9-12-1.1-32.6-3.9-65.8 1-13.4 2-32.3 3.5-74.9 22.9-13.8 6.8-26.5 14.1-36.3 22.6-5.1 4.4-12.1 10.7-17 15.9-12.1 15.8-18.5 27.6-15.4 49 3.6 16.1 10.5 26.2 30.5 41.6 8.7 6.7 9.7 6.6 13.5 8.7 35.8 19.1 64.4 26.1 105.3 31.3"/>
    <path fill="#F1A42B" d="M229.8 104.193c68.7-.4 166.2 27.9 191.6 73.6 22.3 41.7 12.1 91.8-62.2 130.1-44.2 22.1-114.3 30.9-169.5 28-78.4-4-157.5-42.3-157.7-42.4l-7.6-58-.4-3.9s26.9 21.5 59.3 38.3c30.5 15.9 57.9 26.8 109.9 29.5 12.2.6 33 2.5 65.5-3.6 13.1-2.5 31.8-4.8 71.7-25.8 12.9-7.4 24.6-15.2 33.3-24 4.6-4.6 10.7-11.1 15-16.6 10.1-16.2 14.9-28.3 9.1-49.5-5.6-15.9-13.9-25.7-35.8-40.2-9.5-6.3-10.5-6.2-14.6-8.1-38.2-17.5-67.6-23.4-109.1-26.9"/>
  </svg>
