<svg xmlns="http://www.w3.org/2000/svg" viewBox="0 0 28.487 28.49">
   <path d="M89.289 120.969c1.031 1.137 2.804 1.19 3.915.158l3.678-3.413-2.302-2.487-5.715 5.292z" class="st0" style="fill:#03509e;stroke-width:.264583" transform="translate(-82.925 -103.456)"/>
   <path d="M89.289 120.969c1.031 1.137 2.804 1.19 3.915.158l3.678-3.413-2.302-2.487-5.715 5.292z" class="st1" style="fill:none;stroke:#03539f;stroke-width:.0364067;stroke-miterlimit:3.864" transform="translate(-82.925 -103.456)"/>
   <path d="m83.68 114.91 2.328 2.513 2.487-2.302-1.905-2.037 6.297-5.82 7.064 7.62.477-.45c1.137-1.032 1.19-2.805.158-3.916l-5.609-6.086c-1.032-1.138-2.804-1.19-3.916-.159l-7.223 6.694a2.798 2.798 0 0 0-.159 3.943" class="st0" style="fill:#03509e;stroke-width:.264583" transform="translate(-82.925 -103.456)"/>
   <path d="m83.68 114.91 2.328 2.513 2.487-2.302-1.905-2.037 6.297-5.82 7.064 7.62.477-.45c1.137-1.032 1.19-2.805.158-3.916l-5.609-6.086c-1.032-1.138-2.804-1.19-3.916-.159l-7.223 6.694a2.798 2.798 0 0 0-.159 3.943z" class="st1" style="fill:none;stroke:#03539f;stroke-width:.0364067;stroke-miterlimit:3.864" transform="translate(-82.925 -103.456)"/>
   <path d="M100.428 125.572c1.137-1.032 1.19-2.804.158-3.915l-3.413-3.678-2.487 2.302 5.292 5.715z" class="st2" style="fill:#9f358b;stroke-width:.264583" transform="translate(-82.925 -103.456)"/>
   <path d="M100.428 125.572c1.137-1.032 1.19-2.804.158-3.915l-3.413-3.678-2.487 2.302 5.292 5.715z" class="st3" style="fill:none;stroke:#a1398d;stroke-width:.0364067;stroke-miterlimit:3.864" transform="translate(-82.925 -103.456)"/>
   <path d="m94.369 131.182 2.513-2.329-2.302-2.487-2.037 1.905-5.82-6.297 7.62-7.064-.45-.477c-1.033-1.137-2.805-1.19-3.917-.158l-6.058 5.609c-1.138 1.032-1.191 2.804-.16 3.916l6.695 7.223c1.032 1.138 2.804 1.217 3.916.159" class="st2" style="fill:#9f358b;stroke-width:.264583" transform="translate(-82.925 -103.456)"/>
   <path d="m94.369 131.182 2.513-2.329-2.302-2.487-2.037 1.905-5.82-6.297 7.62-7.064-.45-.477c-1.033-1.137-2.805-1.19-3.917-.158l-6.058 5.609c-1.138 1.032-1.191 2.804-.16 3.916l6.695 7.223c1.032 1.138 2.804 1.217 3.916.159z" class="st3" style="fill:none;stroke:#a1398d;stroke-width:.0364067;stroke-miterlimit:3.864" transform="translate(-82.925 -103.456)"/>
   <path d="M105.058 114.433c-1.032-1.137-2.805-1.19-3.916-.158l-3.678 3.413 2.302 2.487 5.715-5.292z" class="st4" style="fill:#009eaf;stroke-width:.264583" transform="translate(-82.925 -103.456)"/>
   <path d="M105.058 114.433c-1.032-1.137-2.805-1.19-3.916-.158l-3.678 3.413 2.302 2.487 5.715-5.292z" class="st5" style="fill:none;stroke:#00a1b1;stroke-width:.0364067;stroke-miterlimit:3.864" transform="translate(-82.925 -103.456)"/>
   <path d="m110.667 120.492-2.328-2.513-2.488 2.302 1.905 2.037-6.297 5.82-7.064-7.62-.476.45c-1.138 1.032-1.19 2.805-.159 3.916l5.61 6.06c1.031 1.137 2.804 1.19 3.915.158l7.223-6.694a2.788 2.788 0 0 0 .159-3.916" class="st4" style="fill:#009eaf;stroke-width:.264583" transform="translate(-82.925 -103.456)"/>
   <path d="m110.667 120.492-2.328-2.513-2.488 2.302 1.905 2.037-6.297 5.82-7.064-7.62-.476.45c-1.138 1.032-1.19 2.805-.159 3.916l5.61 6.06c1.031 1.137 2.804 1.19 3.915.158l7.223-6.694a2.788 2.788 0 0 0 .159-3.916z" class="st5" style="fill:none;stroke:#00a1b1;stroke-width:.0364067;stroke-miterlimit:3.864" transform="translate(-82.925 -103.456)"/>
   <path d="M93.919 109.83c-1.138 1.032-1.19 2.804-.159 3.915l3.413 3.678 2.487-2.302-5.291-5.715z" class="st6" style="fill:#e50447;stroke-width:.264583" transform="translate(-82.925 -103.456)"/>
   <path d="M93.919 109.83c-1.138 1.032-1.19 2.804-.159 3.915l3.413 3.678 2.487-2.302-5.291-5.715z" class="st7" style="fill:none;stroke:#e61f4d;stroke-width:.0364067;stroke-miterlimit:3.864" transform="translate(-82.925 -103.456)"/>
   <path d="m99.951 104.22-2.513 2.329 2.302 2.487 2.037-1.905 5.82 6.297-7.62 7.064.45.477c1.032 1.137 2.805 1.19 3.916.158l6.06-5.609c1.137-1.032 1.19-2.804.158-3.916l-6.694-7.223a2.74 2.74 0 0 0-3.916-.159" class="st6" style="fill:#e50447;stroke-width:.264583" transform="translate(-82.925 -103.456)"/>
   <path d="m99.951 104.22-2.513 2.329 2.302 2.487 2.037-1.905 5.82 6.297-7.62 7.064.45.477c1.032 1.137 2.805 1.19 3.916.158l6.06-5.609c1.137-1.032 1.19-2.804.158-3.916l-6.694-7.223a2.74 2.74 0 0 0-3.916-.159z" class="st7" style="fill:none;stroke:#e61f4d;stroke-width:.0364067;stroke-miterlimit:3.864" transform="translate(-82.925 -103.456)"/>
 </svg>
