<svg version="1.1" id="Layer_1" xmlns="http://www.w3.org/2000/svg" xmlns:xlink="http://www.w3.org/1999/xlink" x="0px" y="0px"
	 width="100%" viewBox="0 0 256 256" enable-background="new 0 0 256 256" xml:space="preserve">
<path fill="#A545A4" opacity="1.000000" stroke="none" 
	d="
M244.823456,42.959648 
	C243.786545,51.844009 242.755447,60.729053 241.711182,69.612549 
	C240.491394,79.989395 239.263336,90.365273 238.032455,100.740807 
	C237.360931,106.401199 236.662674,112.058449 236.000565,117.719925 
	C234.995895,126.310562 234.145691,134.921890 232.975769,143.489716 
	C232.097122,149.924393 230.774277,156.297287 229.736603,162.711823 
	C229.163742,166.252960 228.079483,169.896317 228.445984,173.364639 
	C229.134644,179.881531 224.355957,182.152069 220.388000,184.916840 
	C211.806122,190.896500 202.963165,196.499969 194.279465,202.335373 
	C185.595551,208.170898 177.031067,214.185181 168.314209,219.970367 
	C156.079712,228.090118 143.765747,236.090652 131.436096,244.065369 
	C130.610855,244.599121 129.367203,244.485977 128.270508,244.004089 
	C128.499634,241.884247 129.018173,240.434052 129.018250,238.983810 
	C129.020782,187.349289 128.974792,135.714752 129.296768,83.961372 
	C136.694397,81.388275 143.763489,79.023331 150.761581,76.464172 
	C179.718719,65.874756 208.647018,55.206367 237.612015,44.638592 
	C239.913635,43.798855 242.414948,43.506428 244.823456,42.959648 
M188.661469,196.091721 
	C194.829681,189.414490 200.997894,182.737259 207.540588,175.724869 
	C207.647888,175.412979 207.755188,175.101105 208.397110,174.398163 
	C211.636902,168.668549 214.876678,162.938934 218.614578,156.693649 
	C221.602127,147.427917 225.161713,138.300400 227.441940,128.863739 
	C230.785843,115.025116 231.040009,100.962402 226.781601,87.184937 
	C226.059250,84.847832 223.691193,83.019394 221.780243,80.346207 
	C219.076385,77.817780 216.791702,74.314598 213.592224,72.938721 
	C202.819504,68.306107 193.015793,71.751228 183.196777,77.984894 
	C181.448700,79.270515 179.700623,80.556129 177.302338,82.055931 
	C174.121582,84.993439 170.940811,87.930946 167.233032,91.263443 
	C165.504044,93.938904 163.775040,96.614357 161.779617,99.896400 
	C160.562256,101.637230 159.347961,103.380219 158.127060,105.118568 
	C147.003799,120.956215 139.178528,137.815521 140.909454,157.995667 
	C136.335800,160.102600 137.767548,164.290298 137.532837,168.798477 
	C138.418488,172.908737 139.304138,177.018982 140.064651,181.942368 
	C141.403275,186.005173 142.420273,190.210556 144.145187,194.102142 
	C148.156693,203.152527 157.105820,208.285858 166.407669,205.751648 
	C172.941757,203.971481 178.931381,200.192810 185.785645,197.230255 
	C186.505005,196.852081 187.224380,196.473892 188.661469,196.091721 
z"/>
<path fill="#642B63" opacity="1.000000" stroke="none" 
	d="
M128.935593,84.080231 
	C128.974792,135.714752 129.020782,187.349289 129.018250,238.983810 
	C129.018173,240.434052 128.499634,241.884247 128.045166,243.724915 
	C123.293068,241.309860 118.629227,238.639099 114.161285,235.673203 
	C101.598221,227.333603 89.086739,218.915344 76.611107,210.445343 
	C67.167198,204.033676 57.852730,197.431076 48.394917,191.040314 
	C43.847366,187.967468 39.298931,184.779114 34.382454,182.406555 
	C30.556059,180.560013 29.222378,177.608627 28.866043,174.044189 
	C27.459396,159.973450 26.476795,145.858063 24.919411,131.805527 
	C24.090973,124.330360 22.239182,116.974098 21.170240,109.518158 
	C20.470829,104.639717 20.502344,99.660645 19.930527,94.758842 
	C18.901196,85.935059 17.643686,77.138123 16.521225,68.324905 
	C15.607040,61.147026 14.618619,53.973808 13.962105,46.771271 
	C13.798219,44.973297 14.787127,43.070244 15.585155,41.498005 
	C17.098246,42.555195 18.175745,43.592056 19.460827,44.065666 
	C43.166473,52.802254 66.893440,61.481075 90.623535,70.151222 
	C103.386818,74.814491 116.164444,79.438507 128.935593,84.080231 
M81.686272,82.415077 
	C79.085678,80.974113 76.485085,79.533150 73.272171,77.780640 
	C71.434616,76.702942 69.520874,75.735344 67.774071,74.526505 
	C62.902752,71.155411 57.528564,70.799774 51.792252,71.014282 
	C45.387810,71.253769 40.380558,73.210777 37.416481,79.191162 
	C37.060791,79.908821 36.398422,80.474487 35.197964,81.215256 
	C29.603228,85.224976 30.510672,91.396217 29.549414,97.721062 
	C29.324354,103.072510 28.474558,108.488487 29.019022,113.760460 
	C29.859196,121.895760 31.653862,129.932495 33.144939,138.752136 
	C35.140175,143.827042 37.135406,148.901932 39.159996,154.719055 
	C42.803074,161.082230 46.446152,167.445389 50.172264,174.317642 
	C50.360458,174.598267 50.548653,174.878876 50.827847,175.865860 
	C57.983883,186.582809 66.703186,195.669403 78.009293,202.016907 
	C78.009293,202.016907 77.983040,201.952316 78.563599,202.161850 
	C79.656181,202.573578 80.748764,202.985306 82.607788,203.738998 
	C90.245819,205.877914 97.425644,208.608246 105.368141,203.000870 
	C111.717186,198.518448 118.221275,189.323990 118.300751,180.533279 
	C119.153900,177.516052 120.233467,174.535400 120.730431,171.460602 
	C120.891975,170.461090 119.785599,168.862808 118.811012,168.158386 
	C116.981842,166.836288 114.826111,165.965988 113.008217,164.203369 
	C115.990662,159.364319 118.244690,154.302856 117.043976,148.432770 
	C115.752083,142.116959 114.563469,135.761398 112.857979,129.552795 
	C109.639847,117.837608 103.347488,107.808502 95.132530,98.196884 
	C93.894318,91.890877 88.856110,88.891479 83.993073,85.054901 
	C83.341286,84.362511 82.689491,83.670128 81.686272,82.415077 
z"/>
<path fill="#E560E3" opacity="1.000000" stroke="none" 
	d="
M129.296768,83.961372 
	C116.164444,79.438507 103.386818,74.814491 90.623535,70.151222 
	C66.893440,61.481075 43.166473,52.802254 19.460827,44.065666 
	C18.175745,43.592056 17.098246,42.555195 15.982669,41.415653 
	C22.602383,39.042152 29.089693,36.728764 35.746670,35.115501 
	C41.721363,33.667595 47.946877,33.270233 53.944538,31.897408 
	C60.753830,30.338800 67.387077,28.020424 74.182518,26.389153 
	C80.003662,24.991766 85.999031,24.321085 91.821663,22.928818 
	C100.387451,20.880623 108.863914,18.460342 117.386276,16.228569 
	C125.517761,14.099155 133.462769,15.208688 141.520447,17.119556 
	C155.018570,20.320618 168.674149,22.856310 182.179062,26.030996 
	C188.840210,27.596874 195.281082,30.077913 201.882080,31.929327 
	C206.088196,33.109039 210.419556,33.834274 214.669525,34.867172 
	C224.652390,37.293388 234.620102,39.781963 244.708710,42.602478 
	C242.414948,43.506428 239.913635,43.798855 237.612015,44.638592 
	C208.647018,55.206367 179.718719,65.874756 150.761581,76.464172 
	C143.763489,79.023331 136.694397,81.388275 129.296768,83.961372 
M167.515717,60.979443 
	C175.090851,58.961220 182.814758,57.358345 190.169312,54.724232 
	C193.191925,53.641655 195.418777,50.337307 198.619461,47.543579 
	C201.863495,44.906464 200.755478,41.762272 198.290558,40.077705 
	C193.293900,36.662903 188.089203,32.848553 182.396149,31.271620 
	C147.008835,21.469614 111.398033,21.460667 76.017509,31.252245 
	C70.048981,32.904037 64.631409,37.051289 59.428761,40.712669 
	C57.402153,42.138905 55.881516,45.488625 59.988083,48.056789 
	C60.874641,49.338882 61.472912,51.128506 62.693810,51.822010 
	C71.687965,56.930927 81.284157,60.303699 92.005508,61.762245 
	C97.646637,62.763138 103.251228,64.129272 108.935593,64.698013 
	C127.712257,66.576698 146.436905,65.879860 165.045425,62.684391 
	C165.641708,62.581993 166.096100,61.653194 167.515717,60.979443 
z"/>
<path fill="#A4A303" opacity="1.000000" stroke="none" 
	d="
M141.768814,157.902924 
	C139.178528,137.815521 147.003799,120.956215 158.127060,105.118568 
	C159.347961,103.380219 160.562256,101.637230 162.289062,99.559647 
	C165.521881,97.782478 168.245224,96.342079 171.314819,94.921616 
	C172.103516,94.819801 172.545975,94.698051 173.307098,94.583694 
	C174.807541,94.197136 175.989319,93.803185 177.566177,93.381561 
	C179.280518,93.314011 180.599792,93.274139 181.935165,93.585327 
	C185.233856,96.047661 188.516418,98.158936 191.862976,100.655449 
	C192.010635,101.862045 191.916977,102.752045 192.204346,103.494583 
	C197.383728,116.878159 195.536224,129.632401 188.580490,141.899002 
	C187.820663,143.678040 187.332352,145.531174 186.807343,147.557007 
	C186.770645,147.729675 186.437485,147.846512 186.085373,147.682770 
	C183.817642,150.994644 181.902039,154.470276 179.669113,158.044662 
	C177.567154,160.030121 175.782516,161.916809 173.693420,163.994324 
	C171.166641,165.750702 168.944290,167.316269 166.676727,168.790436 
	C166.631485,168.699051 166.340393,168.721298 166.340393,168.721298 
	C166.340393,168.721298 166.253754,168.981415 166.171600,169.033051 
	C166.089462,169.084671 165.984161,169.247635 165.566330,169.216797 
	C158.314606,170.995377 151.758667,171.196716 146.082672,165.561737 
	C144.598114,162.781525 143.183456,160.342224 141.768814,157.902924 
z"/>
<path fill="#595512" opacity="1.000000" stroke="none" 
	d="
M214.977585,140.838928 
	C215.493347,139.477600 215.661667,137.792206 216.580627,136.806946 
	C223.095428,129.822098 225.180450,120.922493 225.770462,112.083855 
	C226.320984,103.836884 224.747177,95.433075 223.900314,87.119499 
	C223.713028,85.280762 222.651077,83.531105 222.037674,81.348190 
	C223.691193,83.019394 226.059250,84.847832 226.781601,87.184937 
	C231.040009,100.962402 230.785843,115.025116 227.441940,128.863739 
	C225.161713,138.300400 221.602127,147.427917 218.336136,156.537674 
	C217.724106,154.581161 217.390518,152.780640 217.042725,150.606750 
	C215.989014,148.140976 214.949509,146.048538 213.985718,143.633026 
	C214.366837,142.486282 214.672211,141.662598 214.977585,140.838928 
z"/>
<path fill="#572B54" opacity="1.000000" stroke="none" 
	d="
M165.566330,169.216797 
	C161.665100,176.473740 153.737625,176.601517 146.927780,178.914749 
	C144.919937,179.596786 142.869095,180.152145 140.513855,180.947403 
	C139.304138,177.018982 138.418488,172.908737 137.990479,168.374771 
	C141.016266,167.268265 143.584412,166.585464 146.152557,165.902649 
	C151.758667,171.196716 158.314606,170.995377 165.566330,169.216797 
z"/>
<path fill="#666207" opacity="1.000000" stroke="none" 
	d="
M217.056915,150.980103 
	C217.390518,152.780640 217.724106,154.581161 218.087067,156.795502 
	C214.876678,162.938934 211.636902,168.668549 208.145996,174.162903 
	C207.614014,170.947693 207.333130,167.967728 207.052460,164.615036 
	C207.040710,163.496475 207.028717,162.750626 207.341492,161.921997 
	C210.796494,158.219498 213.926712,154.599792 217.056915,150.980103 
z"/>
<path fill="#838300" opacity="1.000000" stroke="none" 
	d="
M207.052246,164.987762 
	C207.333130,167.967728 207.614014,170.947693 207.878693,174.358429 
	C207.755188,175.101105 207.647888,175.412979 207.038513,175.757462 
	C204.519501,176.534851 202.451630,177.167831 200.500198,178.056503 
	C198.623688,178.911102 196.867706,180.030334 195.037003,180.621323 
	C194.962631,179.112930 194.910019,178.016479 194.880524,176.559189 
	C194.903595,175.471909 194.903549,174.745483 195.253052,173.959229 
	C197.016144,172.819489 198.438904,171.751404 199.841156,170.657059 
	C202.251602,168.775940 204.649231,166.878403 207.052246,164.987762 
z"/>
<path fill="#EC5EEC" opacity="1.000000" stroke="none" 
	d="
M181.919052,93.234268 
	C180.599792,93.274139 179.280518,93.314011 177.363525,93.124092 
	C175.506683,93.454971 174.247559,94.015640 172.988434,94.576309 
	C172.545975,94.698051 172.103516,94.819801 171.151459,94.646698 
	C169.681259,93.190712 168.720657,92.029579 167.760056,90.868446 
	C170.940811,87.930946 174.121582,84.993439 177.788849,82.258324 
	C179.873978,84.641174 181.472610,86.821632 182.906311,89.333519 
	C182.467270,90.854713 182.193161,92.044487 181.919052,93.234268 
z"/>
<path fill="#7B7708" opacity="1.000000" stroke="none" 
	d="
M195.058762,181.033279 
	C196.867706,180.030334 198.623688,178.911102 200.500198,178.056503 
	C202.451630,177.167831 204.519501,176.534851 206.851288,175.925034 
	C200.997894,182.737259 194.829681,189.414490 188.377121,195.741577 
	C190.665283,190.726913 195.556915,187.187546 195.058762,181.033279 
z"/>
<path fill="#9B9B05" opacity="1.000000" stroke="none" 
	d="
M195.037003,180.621323 
	C195.556915,187.187546 190.665283,190.726913 188.018250,195.743561 
	C187.224380,196.473892 186.505005,196.852081 185.474884,197.268402 
	C186.120819,194.178116 187.212875,191.082794 187.988922,187.910156 
	C188.551682,185.609344 188.695847,183.206161 189.412598,180.321747 
	C191.484833,178.836594 193.171112,177.878311 194.857407,176.920044 
	C194.910019,178.016479 194.962631,179.112930 195.037003,180.621323 
M190.530289,184.502701 
	C190.530289,184.502701 190.485092,184.521591 190.530289,184.502701 
z"/>
<path fill="#73316F" opacity="1.000000" stroke="none" 
	d="
M146.082672,165.561737 
	C143.584412,166.585464 141.016266,167.268265 137.965820,167.917282 
	C137.767548,164.290298 136.335800,160.102600 141.339142,157.949295 
	C143.183456,160.342224 144.598114,162.781525 146.082672,165.561737 
z"/>
<path fill="#DE5DDE" opacity="1.000000" stroke="none" 
	d="
M183.071228,89.002106 
	C181.472610,86.821632 179.873978,84.641174 178.113953,82.151230 
	C179.700623,80.556129 181.448700,79.270515 183.542480,78.005707 
	C184.260208,79.075737 184.632248,80.124954 185.020340,81.948967 
	C184.381348,84.816544 183.726288,86.909325 183.071228,89.002106 
z"/>
<path fill="#ED6BE6" opacity="1.000000" stroke="none" 
	d="
M167.496552,91.065948 
	C168.720657,92.029579 169.681259,93.190712 170.805222,94.626755 
	C168.245224,96.342079 165.521881,97.782478 162.422272,99.256348 
	C163.775040,96.614357 165.504044,93.938904 167.496552,91.065948 
z"/>
<path fill="#626102" opacity="1.000000" stroke="none" 
	d="
M95.108040,98.956413 
	C103.347488,107.808502 109.639847,117.837608 112.857979,129.552795 
	C114.563469,135.761398 115.752083,142.116959 117.043976,148.432770 
	C118.244690,154.302856 115.990662,159.364319 112.633698,164.747330 
	C108.654037,166.941483 105.184639,169.320663 101.403343,170.024734 
	C98.021637,170.654388 94.295952,169.436676 90.373154,169.014465 
	C87.389343,166.968643 84.754425,164.942444 82.201126,162.566299 
	C80.909500,160.445053 79.536263,158.673737 78.112488,156.555420 
	C76.016602,154.059998 73.971245,151.911606 72.009216,149.477692 
	C70.476357,145.506699 68.750145,141.864960 67.265007,138.127426 
	C63.113392,127.679329 63.973438,116.716576 64.440643,105.780479 
	C68.068794,102.082542 71.376465,98.438759 75.136810,94.713730 
	C77.395714,94.375954 79.201935,94.119415 81.396339,93.918945 
	C86.225693,95.635475 90.666870,97.295944 95.108040,98.956413 
z"/>
<path fill="#532850" opacity="1.000000" stroke="none" 
	d="
M118.038902,180.810425 
	C112.871834,179.471954 107.841835,178.152161 103.098854,176.151855 
	C98.921959,174.390244 95.065880,171.867920 90.895088,169.357819 
	C94.295952,169.436676 98.021637,170.654388 101.403343,170.024734 
	C105.184639,169.320663 108.654037,166.941483 112.532684,165.099548 
	C114.826111,165.965988 116.981842,166.836288 118.811012,168.158386 
	C119.785599,168.862808 120.891975,170.461090 120.730431,171.460602 
	C120.233467,174.535400 119.153900,177.516052 118.038902,180.810425 
z"/>
<path fill="#A9A809" opacity="1.000000" stroke="none" 
	d="
M36.902985,130.001083 
	C39.559074,134.095566 42.215160,138.190033 44.737617,142.814499 
	C43.404335,146.227356 42.204685,149.110245 40.790890,152.164520 
	C40.094711,152.882904 39.612675,153.429871 39.130638,153.976837 
	C37.135406,148.901932 35.140175,143.827042 33.283588,138.121826 
	C34.067348,134.755325 31.088520,130.335114 36.902985,130.001083 
z"/>
<path fill="#BBB809" opacity="1.000000" stroke="none" 
	d="
M71.094925,192.912918 
	C73.443184,195.698318 75.791451,198.483734 78.106827,201.629944 
	C66.703186,195.669403 57.983883,186.582809 51.091259,175.362808 
	C52.899906,175.412262 54.557419,175.766052 55.965347,176.561569 
	C58.370548,177.920593 60.619267,179.556549 63.006229,181.432251 
	C64.633492,186.301636 65.711899,191.158188 71.094925,192.912918 
z"/>
<path fill="#88870A" opacity="1.000000" stroke="none" 
	d="
M36.947296,129.622375 
	C31.088520,130.335114 34.067348,134.755325 33.232956,137.751282 
	C31.653862,129.932495 29.859196,121.895760 29.019022,113.760460 
	C28.474558,108.488487 29.324354,103.072510 30.033382,97.365112 
	C30.714420,96.995529 30.911491,96.981903 31.149902,97.439056 
	C31.113485,102.325455 30.884401,106.746773 31.050386,111.153206 
	C31.100044,112.471443 32.253811,113.748093 32.901730,115.043793 
	C34.265018,119.777084 35.628311,124.510376 36.947296,129.622375 
z"/>
<path fill="#B3B005" opacity="1.000000" stroke="none" 
	d="
M39.145317,154.347946 
	C39.612675,153.429871 40.094711,152.882904 41.131691,152.230164 
	C42.931946,153.376816 44.213543,154.595551 45.414185,155.889420 
	C47.284073,157.904510 49.098976,159.970627 50.949783,162.386993 
	C50.978706,163.503632 50.995037,164.248383 50.978539,165.394058 
	C50.660213,168.466187 50.374722,171.137375 50.089233,173.808563 
	C46.446152,167.445389 42.803074,161.082230 39.145317,154.347946 
z"/>
<path fill="#CDCD00" opacity="1.000000" stroke="none" 
	d="
M50.130745,174.063110 
	C50.374722,171.137375 50.660213,168.466187 51.315536,165.455627 
	C55.468342,168.409988 59.251308,171.703720 63.033695,175.326752 
	C63.035076,176.094818 63.037037,176.533585 63.029572,177.381531 
	C62.991333,178.885880 62.962528,179.981033 62.933716,181.076172 
	C60.619267,179.556549 58.370548,177.920593 55.965347,176.561569 
	C54.557419,175.766052 52.899906,175.412262 51.045761,175.009628 
	C50.548653,174.878876 50.360458,174.598267 50.130745,174.063110 
z"/>
<path fill="#B84AB7" opacity="1.000000" stroke="none" 
	d="
M95.120285,98.576645 
	C90.666870,97.295944 86.225693,95.635475 81.374039,93.618729 
	C80.942383,92.861412 80.921211,92.460396 81.068977,91.747589 
	C82.213150,89.487617 83.188377,87.539444 84.163605,85.591263 
	C88.856110,88.891479 93.894318,91.890877 95.120285,98.576645 
z"/>
<path fill="#973F97" opacity="1.000000" stroke="none" 
	d="
M80.900040,92.059372 
	C80.921211,92.460396 80.942383,92.861412 80.985855,93.562660 
	C79.201935,94.119415 77.395714,94.375954 75.199844,94.248695 
	C74.182884,89.865440 73.555573,85.865990 72.928261,81.866531 
	C73.262604,80.834724 73.596939,79.802910 73.907883,78.431641 
	C76.485085,79.533150 79.085678,80.974113 81.515793,82.763535 
	C79.670830,85.393173 77.996346,87.674347 76.321869,89.955528 
	C77.847923,90.656815 79.373978,91.358093 80.900040,92.059372 
z"/>
<path fill="#A743A7" opacity="1.000000" stroke="none" 
	d="
M81.068970,91.747589 
	C79.373978,91.358093 77.847923,90.656815 76.321869,89.955528 
	C77.996346,87.674347 79.670830,85.393173 81.691513,83.044868 
	C82.689491,83.670128 83.341286,84.362511 84.078339,85.323082 
	C83.188377,87.539444 82.213150,89.487617 81.068970,91.747589 
z"/>
<path fill="#605A19" opacity="1.000000" stroke="none" 
	d="
M31.108562,96.968277 
	C30.911491,96.981903 30.714420,96.995529 30.222065,97.040428 
	C30.510672,91.396217 29.603228,85.224976 35.538082,81.162933 
	C34.926098,85.488167 33.973999,89.865738 32.665230,94.673737 
	C31.908564,95.725540 31.508564,96.346909 31.108562,96.968277 
z"/>
<path fill="#BBB809" opacity="1.000000" stroke="none" 
	d="
M78.273315,202.057083 
	C79.113518,202.327911 80.243996,202.703506 81.607910,203.238068 
	C80.748764,202.985306 79.656181,202.573578 78.273315,202.057083 
z"/>
<path fill="#535109" opacity="1.000000" stroke="none" 
	d="
M60.003395,47.367863 
	C55.881516,45.488625 57.402153,42.138905 59.428761,40.712669 
	C64.631409,37.051289 70.048981,32.904037 76.017509,31.252245 
	C111.398033,21.460667 147.008835,21.469614 182.396149,31.271620 
	C188.089203,32.848553 193.293900,36.662903 198.290558,40.077705 
	C200.755478,41.762272 201.863495,44.906464 198.208527,47.463123 
	C190.082550,40.157368 180.532104,36.358837 170.376556,36.311310 
	C158.515152,36.255806 149.705933,43.202003 142.706116,52.955021 
	C136.756683,53.075733 131.181290,53.089584 125.606590,53.034389 
	C122.036041,52.999039 118.466507,52.861805 114.838730,52.437679 
	C111.867966,49.333004 108.561134,46.866680 106.122833,43.726048 
	C100.807449,36.879604 92.829491,35.893684 85.799263,36.464458 
	C76.465942,37.222210 67.202614,40.435062 60.003395,47.367863 
z"/>
<path fill="#E6E20C" opacity="1.000000" stroke="none" 
	d="
M142.706116,52.955021 
	C150.757050,55.428974 158.433655,58.039043 166.363449,60.879375 
	C166.096100,61.653194 165.641708,62.581993 165.045425,62.684391 
	C146.436905,65.879860 127.712257,66.576698 108.935593,64.698013 
	C103.251228,64.129272 97.646637,62.763138 91.848099,61.404823 
	C97.059471,55.857510 104.454117,56.192867 110.921692,54.000439 
	C111.984909,53.640022 113.063454,53.324825 114.515717,52.879486 
	C118.466507,52.861805 122.036041,52.999039 125.606590,53.034389 
	C131.181290,53.089584 136.756683,53.075733 142.706116,52.955021 
z"/>
<path fill="#ABAB05" opacity="1.000000" stroke="none" 
	d="
M186.085373,147.682770 
	C187.291534,148.728134 187.998138,150.030487 189.033951,150.393539 
	C190.617874,150.948700 192.428955,150.855759 194.500854,151.430695 
	C192.201538,155.226990 189.544998,158.630539 186.558212,161.966415 
	C184.147461,160.581116 182.066956,159.263519 179.986435,157.945908 
	C181.902039,154.470276 183.817642,150.994644 186.085373,147.682770 
z"/>
<path fill="#CE5ACA" opacity="1.000000" stroke="none" 
	d="
M182.906311,89.333527 
	C183.726288,86.909325 184.381348,84.816544 185.047058,82.297684 
	C188.915878,87.084648 192.508453,92.402443 191.876404,99.813095 
	C188.516418,98.158936 185.233856,96.047661 181.935165,93.585327 
	C182.193161,92.044487 182.467270,90.854713 182.906311,89.333527 
z"/>
<path fill="#C1C10B" opacity="1.000000" stroke="none" 
	d="
M179.669113,158.044662 
	C182.066956,159.263519 184.147461,160.581116 186.583313,162.296066 
	C186.949036,163.134811 186.959412,163.576218 186.633102,164.077133 
	C185.140991,165.443863 183.985580,166.751083 182.830170,168.058289 
	C181.623947,166.956055 180.563416,165.584732 179.169159,164.829742 
	C177.861374,164.121567 176.200577,164.065308 174.346497,163.762848 
	C175.782516,161.916809 177.567154,160.030121 179.669113,158.044662 
z"/>
<path fill="#ABAB05" opacity="1.000000" stroke="none" 
	d="
M188.580490,141.899002 
	C188.362839,143.660843 187.873688,145.348557 187.114288,147.210297 
	C187.332352,145.531174 187.820663,143.678040 188.580490,141.899002 
z"/>
<path fill="#ED6BE6" opacity="1.000000" stroke="none" 
	d="
M173.307098,94.583694 
	C174.247559,94.015640 175.506683,93.454971 176.968445,93.151764 
	C175.989319,93.803185 174.807541,94.197136 173.307098,94.583694 
z"/>
<path fill="#572B54" opacity="1.000000" stroke="none" 
	d="
M166.676727,168.790436 
	C166.721954,168.881836 166.497726,168.988571 166.375732,168.984985 
	C166.253754,168.981415 166.340393,168.721298 166.340393,168.721298 
	C166.340393,168.721298 166.631485,168.699051 166.676727,168.790436 
z"/>
<path fill="#9C9C00" opacity="1.000000" stroke="none" 
	d="
M186.969803,164.017624 
	C186.959412,163.576218 186.949036,163.134811 186.913544,162.363754 
	C189.544998,158.630539 192.201538,155.226990 194.918793,151.492157 
	C195.721176,150.865036 196.462860,150.569168 197.774139,150.283142 
	C199.878525,151.853073 201.413330,153.413193 202.942139,155.332550 
	C199.281998,159.797668 195.627853,163.903549 191.722092,168.017273 
	C191.302795,168.031906 191.135101,168.038681 190.811035,167.767715 
	C189.426392,166.332535 188.198090,165.175079 186.969803,164.017624 
z"/>
<path fill="#8E8E25" opacity="1.000000" stroke="none" 
	d="
M202.948151,154.973297 
	C201.413330,153.413193 199.878525,151.853073 198.044647,150.134399 
	C203.254593,146.979965 208.763611,143.984070 214.625092,140.913544 
	C214.672211,141.662598 214.366837,142.486282 213.688278,143.787201 
	C210.180817,147.818512 207.046524,151.372559 203.671112,154.936325 
	C203.430008,154.946045 202.948151,154.973297 202.948151,154.973297 
z"/>
<path fill="#B7B714" opacity="1.000000" stroke="none" 
	d="
M186.633102,164.077133 
	C188.198090,165.175079 189.426392,166.332535 190.752014,168.099396 
	C189.616959,170.809708 188.384567,172.910583 187.152161,175.011475 
	C185.744537,172.934402 184.336914,170.857346 182.879730,168.419281 
	C183.985580,166.751083 185.140991,165.443863 186.633102,164.077133 
z"/>
<path fill="#ACAC0A" opacity="1.000000" stroke="none" 
	d="
M187.197021,175.354126 
	C188.384567,172.910583 189.616959,170.809708 190.908386,168.377136 
	C191.135101,168.038681 191.302795,168.031906 191.744476,168.388092 
	C192.980133,170.507050 193.941818,172.263062 194.903503,174.019058 
	C194.903549,174.745483 194.903595,175.471909 194.880524,176.559174 
	C193.171112,177.878311 191.484833,178.836594 189.482758,179.887772 
	C188.525284,178.552704 187.883591,177.124756 187.197021,175.354126 
z"/>
<path fill="#737301" opacity="1.000000" stroke="none" 
	d="
M203.912231,154.926605 
	C207.046524,151.372559 210.180817,147.818512 213.612549,144.110291 
	C214.949509,146.048538 215.989014,148.140976 217.042725,150.606750 
	C213.926712,154.599792 210.796494,158.219498 207.082901,161.692108 
	C205.637115,159.338882 204.774673,157.132751 203.912231,154.926605 
z"/>
<path fill="#8F8F00" opacity="1.000000" stroke="none" 
	d="
M203.671112,154.936325 
	C204.774673,157.132751 205.637115,159.338882 206.758133,161.774902 
	C207.028717,162.750626 207.040710,163.496475 207.052475,164.615036 
	C204.649231,166.878403 202.251602,168.775940 199.841156,170.657059 
	C198.438904,171.751404 197.016144,172.819489 195.253052,173.959229 
	C193.941818,172.263062 192.980133,170.507050 191.996094,168.380234 
	C195.627853,163.903549 199.281998,159.797668 202.942139,155.332550 
	C202.948151,154.973297 203.430008,154.946045 203.671112,154.936325 
z"/>
<path fill="#ACAC0A" opacity="1.000000" stroke="none" 
	d="
M190.507690,184.512146 
	C190.485092,184.521591 190.530289,184.502701 190.507690,184.512146 
z"/>
<path fill="#F0F00C" opacity="1.000000" stroke="none" 
	d="
M82.201126,162.566299 
	C76.359100,166.924835 71.589394,171.710495 69.167587,178.640930 
	C67.921158,175.629410 71.278236,171.492126 66.035187,169.643280 
	C66.037956,168.883865 66.041519,168.449799 66.364059,167.928589 
	C68.127663,165.899918 69.572304,163.958359 71.355690,161.952667 
	C73.850632,160.226517 76.006828,158.564468 78.163025,156.902435 
	C79.536263,158.673737 80.909500,160.445053 82.201126,162.566299 
z"/>
<path fill="#EAEA01" opacity="1.000000" stroke="none" 
	d="
M78.112488,156.555420 
	C76.006828,158.564468 73.850632,160.226517 71.185158,161.662140 
	C67.376869,157.544128 64.785316,152.776382 59.137650,151.781296 
	C59.574436,151.360184 59.852158,151.148178 60.129879,150.936157 
	C63.788025,150.615463 67.446167,150.294769 71.515106,149.868637 
	C73.971245,151.911606 76.016602,154.059998 78.112488,156.555420 
z"/>
<path fill="#7B3C78" opacity="1.000000" stroke="none" 
	d="
M72.609894,82.037048 
	C73.555573,85.865990 74.182884,89.865440 74.747169,94.329941 
	C71.376465,98.438759 68.068794,102.082542 64.440643,105.780479 
	C64.583626,97.177223 68.009247,89.544258 72.609894,82.037048 
z"/>
<path fill="#C5C503" opacity="1.000000" stroke="none" 
	d="
M50.937187,162.015106 
	C49.098976,159.970627 47.284073,157.904510 45.414185,155.889420 
	C44.213543,154.595551 42.931946,153.376816 41.345833,152.058746 
	C42.204685,149.110245 43.404335,146.227356 44.885513,143.131165 
	C46.700974,144.029724 48.234901,145.141617 49.947533,146.930542 
	C51.450672,150.086456 52.775112,152.565292 54.078888,155.409393 
	C54.055599,156.506958 54.052982,157.239288 53.902786,158.262253 
	C52.815865,159.706955 51.876526,160.861038 50.937187,162.015106 
z"/>
<path fill="#D8D803" opacity="1.000000" stroke="none" 
	d="
M54.099548,155.044128 
	C52.775112,152.565292 51.450672,150.086456 50.078133,147.253235 
	C53.276009,148.028305 56.521988,149.157745 59.948921,150.611664 
	C59.852158,151.148178 59.574436,151.360184 58.858894,151.948700 
	C56.980556,153.231506 55.540051,154.137817 54.099548,155.044128 
z"/>
<path fill="#AEAE71" opacity="1.000000" stroke="none" 
	d="
M31.149904,97.439056 
	C31.508564,96.346909 31.908564,95.725540 32.604988,95.089867 
	C32.937263,101.417038 32.973110,107.758522 32.955345,114.571899 
	C32.253811,113.748093 31.100044,112.471443 31.050386,111.153206 
	C30.884401,106.746773 31.113485,102.325455 31.149904,97.439056 
z"/>
<path fill="#D8D803" opacity="1.000000" stroke="none" 
	d="
M63.006233,181.432251 
	C62.962528,179.981033 62.991333,178.885880 63.356316,177.449448 
	C65.406273,178.402176 67.120064,179.696198 68.833847,180.990219 
	C69.553467,184.696472 70.273087,188.402740 71.043816,192.510956 
	C65.711899,191.158188 64.633492,186.301636 63.006233,181.432251 
z"/>
<path fill="#E4E401" opacity="1.000000" stroke="none" 
	d="
M68.901428,180.675995 
	C67.120064,179.696198 65.406273,178.402176 63.365746,177.040253 
	C63.037037,176.533585 63.035076,176.094818 63.266853,175.106201 
	C64.345726,173.027100 65.190849,171.497864 66.035980,169.968613 
	C71.278236,171.492126 67.921158,175.629410 68.839081,178.803925 
	C69.016609,179.506851 68.992813,179.934311 68.901428,180.675995 
z"/>
<path fill="#D8D803" opacity="1.000000" stroke="none" 
	d="
M66.035187,169.643280 
	C65.190849,171.497864 64.345726,173.027100 63.267433,174.776901 
	C59.251308,171.703720 55.468342,168.409988 51.348370,165.054688 
	C50.995037,164.248383 50.978706,163.503632 50.949783,162.386993 
	C51.876526,160.861038 52.815865,159.706955 54.260391,158.285172 
	C56.388035,159.069229 58.192410,159.924149 59.591747,161.217361 
	C61.881508,163.333466 63.907715,165.734726 66.045090,168.015717 
	C66.041519,168.449799 66.037956,168.883865 66.035187,169.643280 
z"/>
<path fill="#E4E401" opacity="1.000000" stroke="none" 
	d="
M66.364059,167.928589 
	C63.907715,165.734726 61.881508,163.333466 59.591747,161.217361 
	C58.192410,159.924149 56.388035,159.069229 54.407967,157.994537 
	C54.052982,157.239288 54.055599,156.506958 54.078880,155.409378 
	C55.540051,154.137817 56.980556,153.231506 58.699821,152.157791 
	C64.785316,152.776382 67.376869,157.544128 70.846405,161.726273 
	C69.572304,163.958359 68.127663,165.899918 66.364059,167.928589 
z"/>
</svg>
