<svg xmlns="http://www.w3.org/2000/svg" width="136" height="136.763" viewBox="0 0 136 136.763">
   <path
      d="M51.679 901.976H166.07c.512 0 .925.432.925.968v109.796c0 .536-.413.968-.925.968H51.679c-.513 0-.926-.432-.926-.968V902.944c0-.536.413-.968.926-.968z"
      style="fill:#314cb0;fill-opacity:1;fill-rule:nonzero;stroke:#1d2d68;stroke-width:4.85048628;stroke-miterlimit:4;stroke-opacity:1"
      transform="translate(-40.547 -883.624)" />
   <path
      d="m80.27 948.26 16.927-21.41c3.46-4.364 5.19-7.628 5.19-9.79 0-.787-.098-1.416-.294-1.888h29.55c-2.242 1.258-5.054 3.912-8.435 7.962-.905 1.062-2.497 3.008-4.778 5.84l-22.177 27.603 26.483 36.45c1.612 2.202 3.657 4.68 6.134 7.432.668.708 1.632 1.553 2.89 2.536h-30.316c.236-.904.354-1.71.354-2.418 0-2.163-1.495-5.289-4.483-9.378L80.269 967.96v23.534c0 5.465 1.101 9.299 3.303 11.5h-27.72c1.533-1.533 2.516-3.282 2.948-5.248.236-1.101.354-3.166.354-6.193v-64.939c0-3.027-.118-5.092-.354-6.193-.432-1.966-1.415-3.716-2.949-5.25h27.721c-2.202 2.203-3.303 6.017-3.303 11.443v21.646M159.481 938.47v54.144c0 2.831.079 4.68.236 5.544.315 1.77 1.14 3.382 2.477 4.837h-25.951c1.337-1.455 2.162-3.067 2.477-4.837.157-.865.236-2.713.236-5.544v-43.882c0-2.83-.079-4.66-.236-5.485-.315-1.73-1.12-3.323-2.418-4.778h23.18m-10.263-30.847c3.263 0 6.035 1.16 8.316 3.48 2.32 2.28 3.48 5.053 3.48 8.317 0 3.342-1.14 6.153-3.421 8.434-2.241 2.241-5.033 3.362-8.375 3.362-3.264 0-6.056-1.14-8.376-3.421-2.28-2.32-3.42-5.112-3.42-8.375 0-3.343 1.12-6.134 3.361-8.376 2.28-2.28 5.092-3.42 8.435-3.42"
      style="font-style:normal;font-weight:400;font-size:120.79350281px;line-height:122.00000286%;font-family:Sans;letter-spacing:0;word-spacing:0;fill:#fff;fill-opacity:1;stroke:none"
      transform="translate(-40.547 -883.624)" />
</svg>
