<?xml version="1.0" encoding="UTF-8"?>
<svg version="1.1" xmlns="http://www.w3.org/2000/svg" width="1100" height="1100">
<path d="M0 0 C0.97398743 0.00093658 1.94797485 0.00187317 2.95147705 0.00283813 C58.49105707 0.1184246 129.09631395 8.78693856 171.48046875 48.8515625 C183.49111236 61.93419434 188.28601466 78.50462226 187.93359375 95.8515625 C187.34329197 109.43585148 183.09657504 121.73445336 177.58251953 134.04003906 C176.61378324 136.21265621 175.67724728 138.39697772 174.74609375 140.5859375 C171.46443511 148.22890204 167.92741387 155.66782589 164 163 C134.60718099 218.02441702 119.16761922 274.3738564 111.625 336.1875 C111.5130127 337.06994385 111.40102539 337.9523877 111.28564453 338.86157227 C109.73369024 351.66312035 108.12062219 369.01353699 114.99609375 380.47265625 C116.7434782 382.58041256 118.58434185 384.36164797 120.625 386.1875 C121.48996094 386.99832031 122.35492188 387.80914062 123.24609375 388.64453125 C126.60570598 391.75252204 130.01984236 394.79141573 133.47314453 397.79492188 C153.52936835 415.25044854 153.52936835 415.25044854 161.94921875 425.2578125 C163.66868487 427.29295588 163.66868487 427.29295588 165.91796875 429.4140625 C211.99941453 476.62593336 232.54340991 546.43268659 239.625 610.1875 C239.7377124 611.15397461 239.8504248 612.12044922 239.96655273 613.11621094 C240.83530806 621.33129669 240.82335338 629.56151859 240.8125 637.8125 C240.81209213 638.9830191 240.81209213 638.9830191 240.81167603 640.17718506 C240.74293983 683.57117297 235.59263066 726.16061587 224.625 768.1875 C224.36493164 769.1887793 224.10486328 770.19005859 223.83691406 771.22167969 C214.02761291 808.35774879 197.16101561 838.93125129 170.38134766 866.37988281 C168.77140556 868.03682071 167.1856868 869.71322332 165.60546875 871.3984375 C153.39112203 884.24896977 138.84545507 894.2312831 123.625 903.1875 C122.95484863 903.59033203 122.28469727 903.99316406 121.59423828 904.40820312 C97.56972846 918.78758723 71.20852373 928.11240253 44.0625 934.5625 C43.01642578 934.81362549 41.97035156 935.06475098 40.89257812 935.32348633 C-15.19999391 948.05443978 -81.45452882 930.77770656 -129.67578125 901.16015625 C-154.32648044 885.01410814 -176.39205644 865.34463697 -193.375 841.1875 C-193.78121582 840.61531738 -194.18743164 840.04313477 -194.60595703 839.45361328 C-206.44031473 822.5754332 -215.39181169 803.86885784 -221.375 784.1875 C-221.68888672 783.18219238 -222.00277344 782.17688477 -222.32617188 781.14111328 C-231.12614877 752.76418973 -236.85224975 723.67388409 -240.375 694.1875 C-240.55071533 692.80594727 -240.55071533 692.80594727 -240.72998047 691.39648438 C-244.33984423 662.15283319 -244.33784424 630.38826558 -240.375 601.1875 C-240.25141113 600.21216309 -240.12782227 599.23682617 -240.00048828 598.23193359 C-234.43892135 555.06743295 -221.92678802 510.26903859 -198.375 473.1875 C-197.96040527 472.52395508 -197.54581055 471.86041016 -197.11865234 471.17675781 C-191.2820294 461.84740225 -185.1619952 452.85628685 -178.375 444.1875 C-177.37533203 442.89779297 -177.37533203 442.89779297 -176.35546875 441.58203125 C-171.61143705 435.54672465 -166.57632936 429.83067105 -161.375 424.1875 C-160.83504395 423.59710937 -160.29508789 423.00671875 -159.73876953 422.3984375 C-153.23266092 415.28974487 -146.78748188 408.36456824 -139.375 402.1875 C-137.70298018 400.69346938 -136.0366499 399.19305551 -134.375 397.6875 C-131.29621932 394.90666584 -128.19820393 392.15392901 -125.0625 389.4375 C-116.87517495 382.25708387 -112.60836079 376.15715598 -111.375 365.1875 C-110.88729346 356.19177519 -112.02100309 347.24027976 -113 338.3125 C-113.0873642 337.50915222 -113.17472839 336.70580444 -113.26473999 335.87811279 C-117.40090326 298.28612445 -124.37350626 261.10532784 -136.375 225.1875 C-136.64747559 224.35428223 -136.91995117 223.52106445 -137.20068359 222.66259766 C-143.8173002 202.62216276 -153.68414694 183.81186574 -163.91137695 165.41064453 C-197.44760891 104.66472445 -197.44760891 104.66472445 -191.18359375 73.90625 C-185.2856244 54.07539654 -164.61863555 39.69208698 -147.43994141 30.10791016 C-143.86205082 28.25036511 -140.19709524 26.62989104 -136.48046875 25.07666016 C-134.13843061 24.08759442 -131.82089843 23.04937625 -129.5 22.01171875 C-89.16138531 4.35144038 -43.62375175 -0.05429187 0 0 Z " fill="#92A3AC" transform="translate(284.375,94.8125)"/>
<path d="M0 0 C1.16764893 0.36496582 1.16764893 0.36496582 2.35888672 0.73730469 C7.31037166 2.31830123 12.16366108 4.09756861 17 6 C17.88397461 6.34369629 18.76794922 6.68739258 19.67871094 7.04150391 C44.00555029 16.63594326 65.55652236 29.7101242 76.53515625 54.4609375 C85.11537804 76.87945572 77.94787759 100.77723888 69 122 C66.30826986 127.83395632 63.30693069 133.50931871 60.29653931 139.18356323 C57.94005149 143.63360154 55.62925185 148.10718153 53.3203125 152.58203125 C52.86104874 153.47177139 52.40178497 154.36151154 51.92860413 155.2782135 C45.41915698 167.95072631 39.5694072 180.89061461 34 194 C33.53561523 195.08104004 33.07123047 196.16208008 32.59277344 197.27587891 C17.40712826 233.04394771 10.03084605 272.65866453 5 311 C4.88140625 311.8677002 4.7628125 312.73540039 4.640625 313.62939453 C3.34276048 323.2687425 2.79171007 332.83597834 2.6875 342.5625 C2.66977539 343.55016357 2.65205078 344.53782715 2.63378906 345.55541992 C2.64136403 353.01739865 3.2607822 360.71293864 8.1875 366.625 C9.115625 367.40875 10.04375 368.1925 11 369 C12.21403905 370.24445917 13.42176466 371.49509197 14.625 372.75 C17.54703594 375.67843923 20.56756368 378.28818201 23.82421875 380.8359375 C30.70695051 386.42930418 36.95133448 392.61469979 43.20776367 398.89208984 C45.18609363 400.87359138 47.177441 402.84133416 49.16992188 404.80859375 C55.47516217 411.08342909 61.35551159 417.25174051 66.35571289 424.63720703 C68.16908729 427.24297354 70.16836477 429.60487292 72.25 432 C110.52563758 478.468197 127.56577266 542.07431407 132 601 C132.08677002 602.14202881 132.08677002 602.14202881 132.17529297 603.30712891 C133.3306335 619.06021415 133.07198618 634.68346899 132.1875 650.4375 C132.14298706 651.2348053 132.09847412 652.0321106 132.0526123 652.85357666 C129.4867168 698.15409134 123.6578291 744.77294901 106 787 C105.45414593 788.3631687 104.90857361 789.72645026 104.36328125 791.08984375 C95.58926012 812.53314869 82.03347082 831.35827915 66 848 C65.41943848 848.61166016 64.83887695 849.22332031 64.24072266 849.85351562 C49.73590791 865.07333115 34.09850397 877.35024436 16 888 C15.32984863 888.40283203 14.65969727 888.80566406 13.96923828 889.22070312 C-4.98942568 900.56802773 -25.69021721 909.19173097 -47 915 C-48.0916748 915.29922363 -49.18334961 915.59844727 -50.30810547 915.90673828 C-53.97078878 916.89741923 -57.63964433 917.86026022 -61.3125 918.8125 C-63.02928955 919.26641113 -63.02928955 919.26641113 -64.78076172 919.72949219 C-72.86450301 921.75943786 -80.67852742 922.67789036 -89 923 C-89.94125732 923.03907471 -90.88251465 923.07814941 -91.85229492 923.1184082 C-145.6294156 924.82148942 -201.88293473 911.83447323 -246 880 C-246.969375 879.30390625 -247.93875 878.6078125 -248.9375 877.890625 C-268.94493328 863.19766618 -286.69391577 846.349478 -301 826 C-301.40621582 825.42781738 -301.81243164 824.85563477 -302.23095703 824.26611328 C-313.5697792 808.09466677 -322.36684839 790.14964124 -328.25732422 771.32958984 C-328.95344369 769.1460356 -329.70134196 766.98996645 -330.47265625 764.83203125 C-340.05253915 737.38118465 -344.42766925 707.75821774 -348 679 C-348.13132324 677.98953613 -348.26264648 676.97907227 -348.39794922 675.93798828 C-352.04712725 646.82133493 -351.94552752 615.07316498 -348 586 C-347.87641113 585.02466309 -347.75282227 584.04932617 -347.62548828 583.04443359 C-342.06392135 539.87993295 -329.55178802 495.08153859 -306 458 C-305.58540527 457.33645508 -305.17081055 456.67291016 -304.74365234 455.98925781 C-298.9070294 446.65990225 -292.7869952 437.66878685 -286 429 C-285.00033203 427.71029297 -285.00033203 427.71029297 -283.98046875 426.39453125 C-279.23643705 420.35922465 -274.20132936 414.64317105 -269 409 C-268.46004395 408.40960937 -267.92008789 407.81921875 -267.36376953 407.2109375 C-260.85766092 400.10224487 -254.41248188 393.17706824 -247 387 C-245.32798018 385.50596938 -243.6616499 384.00555551 -242 382.5 C-238.92121932 379.71916584 -235.82320393 376.96642901 -232.6875 374.25 C-224.50017495 367.06958387 -220.23336079 360.96965598 -219 350 C-218.51229346 341.00427519 -219.64600309 332.05277976 -220.625 323.125 C-220.7123642 322.32165222 -220.79972839 321.51830444 -220.88973999 320.69061279 C-225.02590326 283.09862445 -231.99850626 245.91782784 -244 210 C-244.27247559 209.16678223 -244.54495117 208.33356445 -244.82568359 207.47509766 C-251.12062237 188.40896186 -260.34491454 170.39806809 -270.0625 152.875 C-280.38017492 134.25888134 -289.44733203 115.27708499 -296 95 C-296.38027344 93.86175781 -296.76054688 92.72351563 -297.15234375 91.55078125 C-300.45453555 79.90941386 -301.81884068 63.41972395 -296.5625 52.25 C-294.89453125 49.55859375 -294.89453125 49.55859375 -293 47 C-291.98486328 45.59427734 -291.98486328 45.59427734 -290.94921875 44.16015625 C-278.54405442 28.09734134 -262.64917187 18.33429895 -244.4375 10.1875 C-243.82933441 9.914823 -243.22116882 9.642146 -242.59457397 9.36120605 C-229.01386693 3.3111091 -215.30598286 -1.48802905 -200.875 -5.0625 C-200.18846344 -5.23364319 -199.50192688 -5.40478638 -198.79458618 -5.58111572 C-184.65560778 -9.07577879 -170.48493678 -11.43325323 -156 -13 C-154.97358398 -13.11569336 -153.94716797 -13.23138672 -152.88964844 -13.35058594 C-101.87236332 -18.84877113 -49.02751529 -15.33712999 0 0 Z " fill="#92A3AC" transform="translate(923,112)"/>
<path d="M0 0 C63.52996348 -0.55358236 143.59153026 2.09616045 192.85546875 48.6640625 C204.86611236 61.74669434 209.66101466 78.31712226 209.30859375 95.6640625 C208.71829197 109.24835148 204.47157504 121.54695336 198.95751953 133.85253906 C197.98878324 136.02515621 197.05224728 138.20947772 196.12109375 140.3984375 C192.83943511 148.04140204 189.30241387 155.48032589 185.375 162.8125 C155.98218099 217.83691702 140.54261922 274.1863564 133 336 C132.8880127 336.88244385 132.77602539 337.7648877 132.66064453 338.67407227 C131.10869024 351.47562035 129.49562219 368.82603699 136.37109375 380.28515625 C138.1184782 382.39291256 139.95934185 384.17414797 142 386 C142.86496094 386.81082031 143.72992188 387.62164062 144.62109375 388.45703125 C147.98070598 391.56502204 151.39484236 394.60391573 154.84814453 397.60742188 C174.90436835 415.06294854 174.90436835 415.06294854 183.32421875 425.0703125 C185.04368487 427.10545588 185.04368487 427.10545588 187.29296875 429.2265625 C233.37441453 476.43843336 253.91840991 546.24518659 261 610 C261.1127124 610.96647461 261.2254248 611.93294922 261.34155273 612.92871094 C262.21030806 621.14379669 262.19835338 629.37401859 262.1875 637.625 C262.18709213 638.7955191 262.18709213 638.7955191 262.18667603 639.98968506 C262.11793983 683.38367297 256.96763066 725.97311587 246 768 C245.73993164 769.0012793 245.47986328 770.00255859 245.21191406 771.03417969 C238.25057777 797.38841856 225.71835555 839.27555213 201 855 C202 853 203 851 204 849 C204.66 849 205.32 849 206 849 C206.26167969 848.44828125 206.52335938 847.8965625 206.79296875 847.328125 C208.15817391 844.69491375 209.70605 842.24338137 211.3125 839.75 C258.88702532 765.7689404 269.16308024 664.07831476 251.78515625 566.87109375 C240.4717678 514.86143818 217.04582887 466.74555451 181.1171875 427.3359375 C179.20919797 425.23081252 177.34952931 423.09386366 175.5 420.9375 C168.73511772 413.18835078 161.25596193 406.29395114 153.41552734 399.65917969 C149.79355494 396.59279902 146.18650448 393.51078034 142.60644531 390.39550781 C141.23145242 389.2010611 139.84711434 388.01738669 138.4609375 386.8359375 C131.78658835 380.76152985 129.26822111 374.5465655 128.58984375 365.5859375 C127.3658492 337.01872982 133.3711308 306.88903232 139 279 C139.23380371 277.80777832 139.46760742 276.61555664 139.70849609 275.38720703 C145.39473633 246.77608528 153.76728459 218.08801076 167 192 C167.5882959 190.83662109 168.1765918 189.67324219 168.78271484 188.47460938 C174.37321309 177.45165653 180.00559776 166.44139138 185.9375 155.59765625 C197.93503701 133.61656818 211.85146201 105.12716869 205.9375 79.5 C198.31801589 55.58816277 180.69670744 41.26743192 159 30 C158.21189941 29.59056152 157.42379883 29.18112305 156.61181641 28.75927734 C108.36920093 4.14608044 53.05065394 1.70027482 0 1 C0 0.67 0 0.34 0 0 Z " fill="#E5E9EB" transform="translate(263,95)"/>
<path d="M0 0 C0.495 0.99 0.495 0.99 1 2 C0.11904365 4.11232111 -0.87447306 6.17783234 -1.91015625 8.21875 C-2.57070877 9.53890499 -3.23075984 10.85931097 -3.89038086 12.17993164 C-4.42113724 13.23327194 -4.42113724 13.23327194 -4.96261597 14.30789185 C-19.00994186 42.30471397 -30.58527798 70.5335122 -38 101 C-38.16050842 101.65550842 -38.32101685 102.31101685 -38.48638916 102.98638916 C-43.56147401 123.8049073 -47.14734383 144.77010839 -50 166 C-50.13277344 166.95712891 -50.26554688 167.91425781 -50.40234375 168.90039062 C-51.70274607 178.44885035 -52.20307566 187.9265482 -52.3125 197.5625 C-52.33920776 199.04472046 -52.33920776 199.04472046 -52.36645508 200.55688477 C-52.35824512 208.01847277 -51.73896998 215.71323602 -46.8125 221.625 C-45.884375 222.40875 -44.95625 223.1925 -44 224 C-42.78596095 225.24445917 -41.57823534 226.49509197 -40.375 227.75 C-37.45296406 230.67843923 -34.43243632 233.28818201 -31.17578125 235.8359375 C-24.29304949 241.42930418 -18.04866552 247.61469979 -11.79223633 253.89208984 C-9.81390637 255.87359138 -7.822559 257.84133416 -5.83007812 259.80859375 C0.47516217 266.08342909 6.35551159 272.25174051 11.35571289 279.63720703 C13.16908729 282.24297354 15.16836477 284.60487292 17.25 287 C55.52563758 333.468197 72.56577266 397.07431407 77 456 C77.05784668 456.76135254 77.11569336 457.52270508 77.17529297 458.30712891 C77.90202794 468.21617105 78.13015142 478.06510836 78 488 C77.67 488 77.34 488 77 488 C76.25117227 484.63252847 75.86087365 481.47394961 75.7890625 478.02734375 C73.70322497 400.52201237 50.01211177 325.35562951 -2.8828125 267.3359375 C-4.79080203 265.23081252 -6.65047069 263.09386366 -8.5 260.9375 C-15.26488228 253.18835078 -22.74403807 246.29395114 -30.58447266 239.65917969 C-34.20644506 236.59279902 -37.81349552 233.51078034 -41.39355469 230.39550781 C-42.76854758 229.2010611 -44.15288566 228.01738669 -45.5390625 226.8359375 C-52.21341165 220.76152985 -54.73177889 214.5465655 -55.41015625 205.5859375 C-56.6341508 177.01872982 -50.6288692 146.88903232 -45 119 C-44.76619629 117.80777832 -44.53239258 116.61555664 -44.29150391 115.38720703 C-38.60483991 86.77395304 -30.22929111 58.09159919 -17 32 C-16.69650635 31.39917603 -16.3930127 30.79835205 -16.08032227 30.17932129 C-12.19336553 22.48777855 -8.26461821 14.81785939 -4.28125 7.17578125 C-3.67345703 6.00958252 -3.06566406 4.84338379 -2.43945312 3.6418457 C-1 1 -1 1 0 0 Z " fill="#E5E9EB" transform="translate(978,257)"/>
<path d="M0 0 C0 0.33 0 0.66 0 1 C-0.79768799 1.08975098 -1.59537598 1.17950195 -2.41723633 1.27197266 C-40.22545564 5.61314662 -81.64208859 12.42805906 -114 34 C-114.99 34 -115.98 34 -117 34 C-117.33 34.99 -117.66 35.98 -118 37 C-119.85546875 38.4296875 -119.85546875 38.4296875 -122.1875 39.875 C-136.37846201 49.06001636 -145.67361812 61.94761326 -150.41113281 78.21948242 C-151.46045829 83.17419549 -151.31256705 88.08383578 -151.1875 93.125 C-151.17396484 94.176875 -151.16042969 95.22875 -151.14648438 96.3125 C-151.11153356 98.87555954 -151.06247682 101.43748913 -151 104 C-156.44090032 93.45842851 -156.33585653 80.21621325 -153 69 C-143.05578161 47.15642875 -120.614166 31.87794955 -99.10546875 22.88916016 C-96.76343061 21.90009442 -94.44589843 20.86187625 -92.125 19.82421875 C-71.01123183 10.58059385 -48.70502688 5.56348591 -26 2 C-25.26797363 1.88285645 -24.53594727 1.76571289 -23.78173828 1.64501953 C-15.81195011 0.39211894 -8.06748707 -0.3019018 0 0 Z " fill="#EFF0F2" transform="translate(247,97)"/>
<path d="M0 0 C0 0.33 0 0.66 0 1 C-0.79768799 1.08975098 -1.59537598 1.17950195 -2.41723633 1.27197266 C-40.22545564 5.61314662 -81.64208859 12.42805906 -114 34 C-114.99 34 -115.98 34 -117 34 C-117.33 34.99 -117.66 35.98 -118 37 C-119.6015625 38.17578125 -119.6015625 38.17578125 -121.625 39.3125 C-136.14212728 48.05371873 -145.70603502 62.05895509 -150.41113281 78.21948242 C-151.46045829 83.17419549 -151.31256705 88.08383578 -151.1875 93.125 C-151.17396484 94.176875 -151.16042969 95.22875 -151.14648438 96.3125 C-151.11153356 98.87555954 -151.06247682 101.43748913 -151 104 C-156.35186673 94.36663989 -155.76981485 78.55912299 -152.9765625 68.20703125 C-151.54342283 65.21010658 -149.97585736 62.66842592 -148 60 C-146.98486328 58.59427734 -146.98486328 58.59427734 -145.94921875 57.16015625 C-133.54405442 41.09734134 -117.64917187 31.33429895 -99.4375 23.1875 C-98.82933441 22.914823 -98.22116882 22.642146 -97.59457397 22.36120605 C-84.01300563 16.3107254 -70.30565916 11.51579911 -55.875 7.9375 C-54.85317123 7.68178223 -54.85317123 7.68178223 -53.81069946 7.42089844 C-36.22107615 3.05391102 -18.18845802 -0.4893146 0 0 Z " fill="#E9EBED" transform="translate(778,99)"/>
<path d="M0 0 C44.18035924 -0.57800537 86.48745166 1.70092751 129 15 C129.77843262 15.24331055 130.55686523 15.48662109 131.35888672 15.73730469 C136.31037166 17.31830123 141.16366108 19.09756861 146 21 C146.88397461 21.34369629 147.76794922 21.68739258 148.67871094 22.04150391 C173.00555029 31.63594326 194.55652236 44.7101242 205.53515625 69.4609375 C209.35736194 79.44764762 209.54436419 88.43933469 209 99 C208.67 99 208.34 99 208 99 C207.94392578 97.67548828 207.94392578 97.67548828 207.88671875 96.32421875 C206.70869096 74.81943696 198.80901405 60.01690308 183.41015625 45.5703125 C175.98715075 39.11843704 167.69079807 34.49342243 159 30 C158.01435059 29.48373047 158.01435059 29.48373047 157.00878906 28.95703125 C128.53736411 14.2202104 96.56563876 7.88795083 65 4 C64.09411133 3.88672363 63.18822266 3.77344727 62.25488281 3.65673828 C41.63666778 1.19700777 20.73690366 1.3568076 0 1 C0 0.67 0 0.34 0 0 Z " fill="#DFE4E7" transform="translate(794,97)"/>
<path d="M0 0 C0.33 0 0.66 0 1 0 C1.20137274 7.8819355 0.760238 15.30436915 -0.625 23.0625 C-0.80248779 24.0848877 -0.97997559 25.10727539 -1.1628418 26.16064453 C-8.34931152 66.45000005 -17.53588527 117.02490503 -47 148 C-47.33 147.34 -47.66 146.68 -48 146 C-47.49210938 145.33355469 -46.98421875 144.66710937 -46.4609375 143.98046875 C-41.66774611 137.56261885 -37.58945454 131.15398231 -34 124 C-33.63648438 123.29149902 -33.27296875 122.58299805 -32.8984375 121.85302734 C-13.73696039 84.31043972 -5.42001167 41.50935766 0 0 Z " fill="#E4E8EA" transform="translate(1051,794)"/>
<path d="M0 0 C0 0.33 0 0.66 0 1 C-0.79768799 1.08975098 -1.59537598 1.17950195 -2.41723633 1.27197266 C-40.22545564 5.61314662 -81.64208859 12.42805906 -114 34 C-114.99 34 -115.98 34 -117 34 C-117.33 34.99 -117.66 35.98 -118 37 C-121.0625 38.6875 -121.0625 38.6875 -124 40 C-120.192666 30.75361743 -107.82200384 26.68705664 -99.234375 22.96972656 C-97.68857077 22.29884212 -96.14714277 21.61781684 -94.609375 20.92871094 C-72.67882404 11.12977299 -49.66806853 5.71463241 -26 2 C-25.26797363 1.88285645 -24.53594727 1.76571289 -23.78173828 1.64501953 C-15.81195011 0.39211894 -8.06748707 -0.3019018 0 0 Z " fill="#E2E6E9" transform="translate(247,97)"/>
<path d="M0 0 C6.16516968 2.04813718 11.05278646 4.71039273 16.3125 8.5 C17.05161621 9.03044922 17.79073242 9.56089844 18.55224609 10.10742188 C33.20322429 20.84742856 44.73063786 34.56231814 48 53 C48.51019106 59.00260332 48.30970608 64.99170212 48 71 C47.67 71 47.34 71 47 71 C46.94392578 69.67548828 46.94392578 69.67548828 46.88671875 68.32421875 C45.71049693 46.85240472 37.83196403 31.88982277 22.33984375 17.53515625 C15.47502524 11.62069553 7.94902207 7.25881912 0 3 C0 2.01 0 1.02 0 0 Z " fill="#E9ECEE" transform="translate(955,125)"/>
<path d="M0 0 C-18.43151534 9.99455409 -46.81699992 7.20751563 -67 5 C-67 4.67 -67 4.34 -67 4 C-65.79690186 3.98541748 -64.59380371 3.97083496 -63.35424805 3.95581055 C-58.79326946 3.89684117 -54.23273522 3.81963767 -49.67211914 3.73754883 C-47.71646456 3.70475462 -45.76072563 3.67658938 -43.80493164 3.65356445 C-31.9340711 3.51017446 -20.53542177 2.7634322 -8.84692383 0.63208008 C-5.78263475 0.12859309 -3.08602219 -0.14226749 0 0 Z " fill="#DEE2E4" transform="translate(864,1029)"/>
<path d="M0 0 C-18.66628099 10.34031393 -46.48079393 6.27391967 -67 5 C-67 4.67 -67 4.34 -67 4 C-65.79690186 3.98541748 -64.59380371 3.97083496 -63.35424805 3.95581055 C-58.79326946 3.89684117 -54.23273522 3.81963767 -49.67211914 3.73754883 C-47.71646456 3.70475462 -45.76072563 3.67658938 -43.80493164 3.65356445 C-31.9340711 3.51017446 -20.53542177 2.7634322 -8.84692383 0.63208008 C-5.78263475 0.12859309 -3.08602219 -0.14226749 0 0 Z " fill="#E2E5E7" transform="translate(333,1027)"/>
<path d="M0 0 C0.33 0 0.66 0 1 0 C1.125 5.75 1.125 5.75 0 8 C-0.23274209 10.87910588 -0.41972757 13.74146495 -0.5625 16.625 C-0.62727539 17.82769531 -0.62727539 17.82769531 -0.69335938 19.0546875 C-0.79951457 21.0362511 -0.90026855 23.01810271 -1 25 C-1.33 25 -1.66 25 -2 25 C-2.33 23.35 -2.66 21.7 -3 20 C-3.99 20.33 -4.98 20.66 -6 21 C-5.52162972 14.7811864 -4.56630899 4.56630899 0 0 Z " fill="#8698A2" transform="translate(101,162)"/>
<path d="M0 0 C6.75838335 0.1774929 13.41711338 1.5573674 20 3 C20 3.33 20 3.66 20 4 C16.77085248 4.02917228 13.54173917 4.04685663 10.3125 4.0625 C8.94448242 4.07506836 8.94448242 4.07506836 7.54882812 4.08789062 C6.66259766 4.09111328 5.77636719 4.09433594 4.86328125 4.09765625 C4.05157471 4.10289307 3.23986816 4.10812988 2.40356445 4.11352539 C-0.14864673 3.9929791 -2.51026137 3.559949 -5 3 C-4.360625 2.690625 -3.72125 2.38125 -3.0625 2.0625 C-1.06389179 1.1654837 -1.06389179 1.1654837 0 0 Z " fill="#7E919B" transform="translate(845,119)"/>
<path d="M0 0 C0.33 0 0.66 0 1 0 C1.125 5.75 1.125 5.75 0 8 C-0.23274209 10.87910588 -0.41972757 13.74146495 -0.5625 16.625 C-0.62727539 17.82769531 -0.62727539 17.82769531 -0.69335938 19.0546875 C-0.79951457 21.0362511 -0.90026855 23.01810271 -1 25 C-1.33 25 -1.66 25 -2 25 C-2.13277344 24.38511719 -2.26554688 23.77023438 -2.40234375 23.13671875 C-2.57894531 22.32847656 -2.75554688 21.52023438 -2.9375 20.6875 C-3.19853516 19.48673828 -3.19853516 19.48673828 -3.46484375 18.26171875 C-3.99886159 15.854599 -3.99886159 15.854599 -5 13 C-4.2578125 10.1171875 -4.2578125 10.1171875 -3.125 6.875 C-2.75632812 5.79992187 -2.38765625 4.72484375 -2.0078125 3.6171875 C-1 1 -1 1 0 0 Z " fill="#8698A2" transform="translate(632,164)"/>
<path d="M0 0 C-8.25 0 -16.5 0 -25 0 C-24.67 -0.66 -24.34 -1.32 -24 -2 C-16.28159557 -3.92960111 -7.08865139 -3.54432569 0 0 Z " fill="#7C8F99" transform="translate(338,121)"/>
<path d="M0 0 C2.64 0.33 5.28 0.66 8 1 C8 1.66 8 2.32 8 3 C8.66 3 9.32 3 10 3 C10 3.66 10 4.32 10 5 C10.66 5 11.32 5 12 5 C12 5.66 12 6.32 12 7 C12.66 7 13.32 7 14 7 C15.7143618 8.95927063 17.38405168 10.95880212 19 13 C18.67 13.66 18.34 14.32 18 15 C17.57589844 14.55269531 17.15179688 14.10539063 16.71484375 13.64453125 C13.66555041 10.5014135 10.68824945 7.65892922 7.0625 5.1875 C6.051875 4.465625 5.04125 3.74375 4 3 C4 2.34 4 1.68 4 1 C2.68 0.67 1.36 0.34 0 0 Z " fill="#7F919B" transform="translate(405,139)"/>
<path d="M0 0 C-7.31819173 4.00758119 -15.73986956 5.47654599 -24 5 C-23.67 4.34 -23.34 3.68 -23 3 C-20.07204077 2.35395232 -17.20851576 1.82661144 -14.25 1.375 C-13.43789063 1.2409375 -12.62578125 1.106875 -11.7890625 0.96875 C-7.82593402 0.33619855 -4.02730542 -0.18008276 0 0 Z " fill="#EBEDEE" transform="translate(864,1029)"/>
<path d="M0 0 C0.66 0.33 1.32 0.66 2 1 C-4 7 -10 13 -16 19 C-16 13.49581073 -10.69222469 9.76817235 -7 6 C-4.72454022 3.90179524 -2.40856363 1.94734932 0 0 Z " fill="#A7B6BD" transform="translate(654,138)"/>
<path d="M0 0 C0.66 0.33 1.32 0.66 2 1 C-3.28 6.28 -8.56 11.56 -14 17 C-14.66 16.67 -15.32 16.34 -16 16 C-5.62642369 4.29384966 -5.62642369 4.29384966 0 0 Z " fill="#A6B5BD" transform="translate(122,137)"/>
<path d="M0 0 C0.99 0.33 1.98 0.66 3 1 C4.01646891 4.04940673 4.19844676 6.30369903 4.25 9.5 C4.27578125 10.4590625 4.3015625 11.418125 4.328125 12.40625 C3.95389709 15.36443253 3.30935919 16.20113073 1 18 C1.01740234 16.80503906 1.01740234 16.80503906 1.03515625 15.5859375 C1.11851557 7.74521011 1.11851557 7.74521011 0 0 Z " fill="#8699A3" transform="translate(961,166)"/>
<path d="M0 0 C0.99 0 1.98 0 3 0 C4.01646891 3.04940673 4.19844676 5.30369903 4.25 8.5 C4.27578125 9.4590625 4.3015625 10.418125 4.328125 11.40625 C3.95389709 14.36443253 3.30935919 15.20113073 1 17 C1.01740234 15.78763672 1.01740234 15.78763672 1.03515625 14.55078125 C1.04417969 13.48214844 1.05320312 12.41351563 1.0625 11.3125 C1.07410156 10.25675781 1.08570313 9.20101562 1.09765625 8.11328125 C1.00865425 5.27589738 0.64939838 2.7561081 0 0 Z " fill="#8799A3" transform="translate(430,165)"/>
<path d="M0 0 C2.97 0.495 2.97 0.495 6 1 C6 1.66 6 2.32 6 3 C6.556875 3.20625 7.11375 3.4125 7.6875 3.625 C10.92501302 5.55000774 12.68231141 8.03850902 15 11 C14.67 11.66 14.34 12.32 14 13 C13.51789062 12.50628906 13.03578125 12.01257813 12.5390625 11.50390625 C11.90742187 10.86324219 11.27578125 10.22257813 10.625 9.5625 C9.99851562 8.92441406 9.37203125 8.28632813 8.7265625 7.62890625 C7.08276939 5.92117824 7.08276939 5.92117824 5 5 C5 4.34 5 3.68 5 3 C2.525 2.01 2.525 2.01 0 1 C0 0.67 0 0.34 0 0 Z " fill="#7E909B" transform="translate(940,143)"/>
<path d="M0 0 C0.33 0 0.66 0 1 0 C1 3.96 1 7.92 1 12 C-0.32 12.33 -1.64 12.66 -3 13 C-2.52060632 8.28596212 -2.03165952 4.33420699 0 0 Z " fill="#7F919A" transform="translate(98,170)"/>
<path d="M0 0 C1.60875 0.3403125 1.60875 0.3403125 3.25 0.6875 C4.508125 0.831875 5.76625 0.97625 7.0625 1.125 C8.114375 1.310625 9.16625 1.49625 10.25 1.6875 C10.58 2.3475 10.91 3.0075 11.25 3.6875 C-0.27164009 2.72394647 -0.27164009 2.72394647 -5.75 1.6875 C-2.75 -0.3125 -2.75 -0.3125 0 0 Z " fill="#7E909B" transform="translate(887.75,123.3125)"/>
<path d="M0 0 C0.33 0 0.66 0 1 0 C1 3.63 1 7.26 1 11 C0.01 10.01 -0.98 9.02 -2 8 C-1.75528519 5.00224356 -1.34661086 2.69322172 0 0 Z " fill="#7C8E98" transform="translate(629,172)"/>
</svg>
