ISO-10303-21;
HEADER;
FILE_DESCRIPTION(('Open CASCADE Model'),'2;1');
FILE_NAME('Open CASCADE Shape Model','2026-09-30T02:40:43',('Author'),(
    'Open CASCADE'),'Open CASCADE STEP processor 8.0','Open CASCADE 8.0'
  ,'Unknown');
FILE_SCHEMA((
'AP242_MANAGED_MODEL_BASED_3D_ENGINEERING_MIM_LF {1 0 10303 442 1 1 4 }'
    ));
ENDSEC;
DATA;
#1 = APPLICATION_PROTOCOL_DEFINITION('international standard',
  'ap242_managed_model_based_3d_engineering',2013,#2);
#2 = APPLICATION_CONTEXT('Managed model based 3d engineering');
#3 = SHAPE_DEFINITION_REPRESENTATION(#4,#10);
#4 = PRODUCT_DEFINITION_SHAPE('','',#5);
#5 = PRODUCT_DEFINITION('design','',#6,#9);
#6 = PRODUCT_DEFINITION_FORMATION('','',#7);
#7 = PRODUCT('assembly','assembly','',(#8));
#8 = PRODUCT_CONTEXT('',#2,'mechanical');
#9 = PRODUCT_DEFINITION_CONTEXT('part definition',#2,'design');
#10 = SHAPE_REPRESENTATION('',(#11,#15),#19);
#11 = AXIS2_PLACEMENT_3D('',#12,#13,#14);
#12 = CARTESIAN_POINT('',(0.,0.,0.));
#13 = DIRECTION('',(0.,0.,1.));
#14 = DIRECTION('',(1.,0.,-0.));
#15 = AXIS2_PLACEMENT_3D('',#16,#17,#18);
#16 = CARTESIAN_POINT('',(0.,0.,0.));
#17 = DIRECTION('',(0.,0.,1.));
#18 = DIRECTION('',(1.,0.,-0.));
#19 = ( GEOMETRIC_REPRESENTATION_CONTEXT(3) 
GLOBAL_UNCERTAINTY_ASSIGNED_CONTEXT((#23)) GLOBAL_UNIT_ASSIGNED_CONTEXT(
(#20,#21,#22)) REPRESENTATION_CONTEXT('Context #1',
  '3D Context with UNIT and UNCERTAINTY') );
#20 = ( LENGTH_UNIT() NAMED_UNIT(*) SI_UNIT(.MILLI.,.METRE.) );
#21 = ( NAMED_UNIT(*) PLANE_ANGLE_UNIT() SI_UNIT($,.RADIAN.) );
#22 = ( NAMED_UNIT(*) SI_UNIT($,.STERADIAN.) SOLID_ANGLE_UNIT() );
#23 = UNCERTAINTY_MEASURE_WITH_UNIT(LENGTH_MEASURE(2.E-05),#20,
  'distance_accuracy_value','confusion accuracy');
#24 = PRODUCT_RELATED_PRODUCT_CATEGORY('part',$,(#7));
#25 = SHAPE_DEFINITION_REPRESENTATION(#26,#32);
#26 = PRODUCT_DEFINITION_SHAPE('','',#27);
#27 = PRODUCT_DEFINITION('design','',#28,#31);
#28 = PRODUCT_DEFINITION_FORMATION('','',#29);
#29 = PRODUCT('Shape 1','Shape 1','',(#30));
#30 = PRODUCT_CONTEXT('',#2,'mechanical');
#31 = PRODUCT_DEFINITION_CONTEXT('part definition',#2,'design');
#32 = ADVANCED_BREP_SHAPE_REPRESENTATION('',(#11,#33),#891);
#33 = MANIFOLD_SOLID_BREP('',#34);
#34 = CLOSED_SHELL('',(#35,#72,#127,#659,#793,#829,#883));
#35 = ADVANCED_FACE('',(#36),#49,.F.);
#36 = FACE_BOUND('',#37,.T.);
#37 = EDGE_LOOP('',(#38));
#38 = ORIENTED_EDGE('',*,*,#39,.F.);
#39 = EDGE_CURVE('',#40,#40,#42,.T.);
#40 = VERTEX_POINT('',#41);
#41 = CARTESIAN_POINT('',(2.016,0.,0.));
#42 = SURFACE_CURVE('',#43,(#48,#60),.PCURVE_S1.);
#43 = CIRCLE('',#44,2.016);
#44 = AXIS2_PLACEMENT_3D('',#45,#46,#47);
#45 = CARTESIAN_POINT('',(0.,0.,0.));
#46 = DIRECTION('',(0.,0.,1.));
#47 = DIRECTION('',(1.,0.,-0.));
#48 = PCURVE('',#49,#54);
#49 = PLANE('',#50);
#50 = AXIS2_PLACEMENT_3D('',#51,#52,#53);
#51 = CARTESIAN_POINT('',(0.,0.,0.));
#52 = DIRECTION('',(0.,0.,1.));
#53 = DIRECTION('',(1.,0.,-0.));
#54 = DEFINITIONAL_REPRESENTATION('',(#55),#59);
#55 = CIRCLE('',#56,2.016);
#56 = AXIS2_PLACEMENT_2D('',#57,#58);
#57 = CARTESIAN_POINT('',(0.,0.));
#58 = DIRECTION('',(1.,-0.));
#59 = ( GEOMETRIC_REPRESENTATION_CONTEXT(2) 
PARAMETRIC_REPRESENTATION_CONTEXT() REPRESENTATION_CONTEXT('2D SPACE',''
  ) );
#60 = PCURVE('',#61,#66);
#61 = CONICAL_SURFACE('',#62,2.016,0.785398163397);
#62 = AXIS2_PLACEMENT_3D('',#63,#64,#65);
#63 = CARTESIAN_POINT('',(0.,0.,0.));
#64 = DIRECTION('',(0.,0.,1.));
#65 = DIRECTION('',(1.,0.,-0.));
#66 = DEFINITIONAL_REPRESENTATION('',(#67),#71);
#67 = LINE('',#68,#69);
#68 = CARTESIAN_POINT('',(0.,0.));
#69 = VECTOR('',#70,1.);
#70 = DIRECTION('',(1.,0.));
#71 = ( GEOMETRIC_REPRESENTATION_CONTEXT(2) 
PARAMETRIC_REPRESENTATION_CONTEXT() REPRESENTATION_CONTEXT('2D SPACE',''
  ) );
#72 = ADVANCED_FACE('',(#73),#61,.T.);
#73 = FACE_BOUND('',#74,.T.);
#74 = EDGE_LOOP('',(#75,#76,#99,#126));
#75 = ORIENTED_EDGE('',*,*,#39,.T.);
#76 = ORIENTED_EDGE('',*,*,#77,.T.);
#77 = EDGE_CURVE('',#40,#78,#80,.T.);
#78 = VERTEX_POINT('',#79);
#79 = CARTESIAN_POINT('',(2.4,0.,0.384));
#80 = SEAM_CURVE('',#81,(#85,#92),.PCURVE_S1.);
#81 = LINE('',#82,#83);
#82 = CARTESIAN_POINT('',(2.016,0.,0.));
#83 = VECTOR('',#84,1.);
#84 = DIRECTION('',(0.707106781187,0.,0.707106781187));
#85 = PCURVE('',#61,#86);
#86 = DEFINITIONAL_REPRESENTATION('',(#87),#91);
#87 = LINE('',#88,#89);
#88 = CARTESIAN_POINT('',(0.,0.));
#89 = VECTOR('',#90,1.);
#90 = DIRECTION('',(0.,1.));
#91 = ( GEOMETRIC_REPRESENTATION_CONTEXT(2) 
PARAMETRIC_REPRESENTATION_CONTEXT() REPRESENTATION_CONTEXT('2D SPACE',''
  ) );
#92 = PCURVE('',#61,#93);
#93 = DEFINITIONAL_REPRESENTATION('',(#94),#98);
#94 = LINE('',#95,#96);
#95 = CARTESIAN_POINT('',(6.28318530718,0.));
#96 = VECTOR('',#97,1.);
#97 = DIRECTION('',(0.,1.));
#98 = ( GEOMETRIC_REPRESENTATION_CONTEXT(2) 
PARAMETRIC_REPRESENTATION_CONTEXT() REPRESENTATION_CONTEXT('2D SPACE',''
  ) );
#99 = ORIENTED_EDGE('',*,*,#100,.F.);
#100 = EDGE_CURVE('',#78,#78,#101,.T.);
#101 = SURFACE_CURVE('',#102,(#107,#114),.PCURVE_S1.);
#102 = CIRCLE('',#103,2.4);
#103 = AXIS2_PLACEMENT_3D('',#104,#105,#106);
#104 = CARTESIAN_POINT('',(0.,0.,0.384));
#105 = DIRECTION('',(0.,0.,1.));
#106 = DIRECTION('',(1.,0.,-0.));
#107 = PCURVE('',#61,#108);
#108 = DEFINITIONAL_REPRESENTATION('',(#109),#113);
#109 = LINE('',#110,#111);
#110 = CARTESIAN_POINT('',(0.,0.384));
#111 = VECTOR('',#112,1.);
#112 = DIRECTION('',(1.,0.));
#113 = ( GEOMETRIC_REPRESENTATION_CONTEXT(2) 
PARAMETRIC_REPRESENTATION_CONTEXT() REPRESENTATION_CONTEXT('2D SPACE',''
  ) );
#114 = PCURVE('',#115,#120);
#115 = CYLINDRICAL_SURFACE('',#116,2.4);
#116 = AXIS2_PLACEMENT_3D('',#117,#118,#119);
#117 = CARTESIAN_POINT('',(0.,0.,0.384));
#118 = DIRECTION('',(0.,0.,1.));
#119 = DIRECTION('',(1.,0.,-0.));
#120 = DEFINITIONAL_REPRESENTATION('',(#121),#125);
#121 = LINE('',#122,#123);
#122 = CARTESIAN_POINT('',(0.,0.));
#123 = VECTOR('',#124,1.);
#124 = DIRECTION('',(1.,0.));
#125 = ( GEOMETRIC_REPRESENTATION_CONTEXT(2) 
PARAMETRIC_REPRESENTATION_CONTEXT() REPRESENTATION_CONTEXT('2D SPACE',''
  ) );
#126 = ORIENTED_EDGE('',*,*,#77,.F.);
#127 = ADVANCED_FACE('',(#128),#115,.T.);
#128 = FACE_BOUND('',#129,.T.);
#129 = EDGE_LOOP('',(#130,#153,#154,#155,#327,#494));
#130 = ORIENTED_EDGE('',*,*,#131,.F.);
#131 = EDGE_CURVE('',#78,#132,#134,.T.);
#132 = VERTEX_POINT('',#133);
#133 = CARTESIAN_POINT('',(2.4,0.,19.442449234641));
#134 = SEAM_CURVE('',#135,(#139,#146),.PCURVE_S1.);
#135 = LINE('',#136,#137);
#136 = CARTESIAN_POINT('',(2.4,0.,0.384));
#137 = VECTOR('',#138,1.);
#138 = DIRECTION('',(0.,0.,1.));
#139 = PCURVE('',#115,#140);
#140 = DEFINITIONAL_REPRESENTATION('',(#141),#145);
#141 = LINE('',#142,#143);
#142 = CARTESIAN_POINT('',(0.,0.));
#143 = VECTOR('',#144,1.);
#144 = DIRECTION('',(0.,1.));
#145 = ( GEOMETRIC_REPRESENTATION_CONTEXT(2) 
PARAMETRIC_REPRESENTATION_CONTEXT() REPRESENTATION_CONTEXT('2D SPACE',''
  ) );
#146 = PCURVE('',#115,#147);
#147 = DEFINITIONAL_REPRESENTATION('',(#148),#152);
#148 = LINE('',#149,#150);
#149 = CARTESIAN_POINT('',(6.28318530718,0.));
#150 = VECTOR('',#151,1.);
#151 = DIRECTION('',(0.,1.));
#152 = ( GEOMETRIC_REPRESENTATION_CONTEXT(2) 
PARAMETRIC_REPRESENTATION_CONTEXT() REPRESENTATION_CONTEXT('2D SPACE',''
  ) );
#153 = ORIENTED_EDGE('',*,*,#100,.T.);
#154 = ORIENTED_EDGE('',*,*,#131,.T.);
#155 = ORIENTED_EDGE('',*,*,#156,.F.);
#156 = EDGE_CURVE('',#157,#132,#159,.T.);
#157 = VERTEX_POINT('',#158);
#158 = CARTESIAN_POINT('',(7.347880794884E-16,-2.4,19.2));
#159 = SURFACE_CURVE('',#160,(#212,#267),.PCURVE_S1.);
#160 = B_SPLINE_CURVE_WITH_KNOTS('',8,(#161,#162,#163,#164,#165,#166,
    #167,#168,#169,#170,#171,#172,#173,#174,#175,#176,#177,#178,#179,
    #180,#181,#182,#183,#184,#185,#186,#187,#188,#189,#190,#191,#192,
    #193,#194,#195,#196,#197,#198,#199,#200,#201,#202,#203,#204,#205,
    #206,#207,#208,#209,#210,#211),.UNSPECIFIED.,.T.,.F.,(9,7,7,7,7,7,7,
    9),(0.,0.155010115258,0.286768414944,0.42288850453,0.578975170828,
    0.706694837364,0.827400674015,1.),.UNSPECIFIED.);
#161 = CARTESIAN_POINT('',(2.4,-4.440892098501E-16,19.442449234641));
#162 = CARTESIAN_POINT('',(2.4,0.250915886028,19.442449234641));
#163 = CARTESIAN_POINT('',(2.370019297696,0.501393357373,19.436329765956
    ));
#164 = CARTESIAN_POINT('',(2.310243437066,0.749439056706,19.424126865957
    ));
#165 = CARTESIAN_POINT('',(2.220085135229,0.992890802175,19.40617100993)
  );
#166 = CARTESIAN_POINT('',(2.098442206213,1.228985008316,19.383110664576
    ));
#167 = CARTESIAN_POINT('',(1.943846853597,1.454071006113,19.356067211889
    ));
#168 = CARTESIAN_POINT('',(1.754704156753,1.663189422881,19.326819178368
    ));
#169 = CARTESIAN_POINT('',(1.338664413991,2.007367430477,19.273344107297
    ));
#170 = CARTESIAN_POINT('',(1.11371197803,2.155428936914,19.247996734069)
  );
#171 = CARTESIAN_POINT('',(0.858364781506,2.280058632259,19.224486877581
    ));
#172 = CARTESIAN_POINT('',(0.578904127487,2.37137869866,19.205952544737)
  );
#173 = CARTESIAN_POINT('',(0.283913578261,2.422890540134,19.195237453135
    ));
#174 = CARTESIAN_POINT('',(-1.689204600331E-02,2.431443009589,
    19.193643587841));
#175 = CARTESIAN_POINT('',(-0.313535345892,2.397343897144,
    19.200743143957));
#176 = CARTESIAN_POINT('',(-0.889555286256,2.249447113757,
    19.229428714859));
#177 = CARTESIAN_POINT('',(-1.157384711447,2.135783965485,
    19.250956882414));
#178 = CARTESIAN_POINT('',(-1.397542709967,1.99187159672,19.276897519165
    ));
#179 = CARTESIAN_POINT('',(-1.608926394646,1.82445969937,19.304666013882
    ));
#180 = CARTESIAN_POINT('',(-1.791374335442,1.639254745762,
    19.332081917501));
#181 = CARTESIAN_POINT('',(-1.945329760354,1.441120157287,
    19.357494464933));
#182 = CARTESIAN_POINT('',(-2.071687082227,1.234164023865,
    19.379744922649));
#183 = CARTESIAN_POINT('',(-2.286136139038,0.77843658051,19.419204279488
    ));
#184 = CARTESIAN_POINT('',(-2.367565303805,0.524441376393,
    19.435501163681));
#185 = CARTESIAN_POINT('',(-2.416266317012,0.263820595545,
    19.445769949002));
#186 = CARTESIAN_POINT('',(-2.432473983787,1.993960552227E-12,
    19.449274066595));
#187 = CARTESIAN_POINT('',(-2.416266317014,-0.263820595544,
    19.445769949003));
#188 = CARTESIAN_POINT('',(-2.367565303805,-0.524441376395,
    19.435501163681));
#189 = CARTESIAN_POINT('',(-2.286136139037,-0.778436580513,
    19.419204279488));
#190 = CARTESIAN_POINT('',(-2.077852110119,-1.221062672705,
    19.380879308778));
#191 = CARTESIAN_POINT('',(-1.961030128812,-1.415122054347,
    19.360263538634));
#192 = CARTESIAN_POINT('',(-1.820233335858,-1.601453284993,
    19.336867731193));
#193 = CARTESIAN_POINT('',(-1.654682932711,-1.776911561613,
    19.311604116548));
#194 = CARTESIAN_POINT('',(-1.463828135053,-1.93773091984,
    19.285744237322));
#195 = CARTESIAN_POINT('',(-1.247507420307,-2.079418310697,
    19.260969993952));
#196 = CARTESIAN_POINT('',(-1.006227890692,-2.196566077587,
    19.239323589638));
#197 = CARTESIAN_POINT('',(-0.491583699408,-2.363784111887,
    19.207455909322));
#198 = CARTESIAN_POINT('',(-0.224340660066,-2.416003420792,
    19.196897088228));
#199 = CARTESIAN_POINT('',(5.255236528256E-02,-2.433348035565,
    19.193140161323));
#200 = CARTESIAN_POINT('',(0.330406330818,-2.413419491829,
    19.197258575949));
#201 = CARTESIAN_POINT('',(0.600265441411,-2.357089525816,
    19.208962631933));
#202 = CARTESIAN_POINT('',(0.853729676059,-2.268400169316,
    19.226471337045));
#203 = CARTESIAN_POINT('',(1.083910867503,-2.154626726034,
    19.247324763649));
#204 = CARTESIAN_POINT('',(1.574932552612,-1.843014889151,
    19.300250064444));
#205 = CARTESIAN_POINT('',(1.81819293072,-1.622585706626,19.334560903763
    ));
#206 = CARTESIAN_POINT('',(2.016369430773,-1.377354849099,
    19.367708118922));
#207 = CARTESIAN_POINT('',(2.171599936457,-1.115626925631,
    19.396543311095));
#208 = CARTESIAN_POINT('',(2.286153132308,-0.843348803979,
    19.419211529541));
#209 = CARTESIAN_POINT('',(2.361926161191,-0.564732210265,
    19.434677203688));
#210 = CARTESIAN_POINT('',(2.4,-0.282762705562,19.442449234641));
#211 = CARTESIAN_POINT('',(2.4,-4.440892098501E-16,19.442449234641));
#212 = PCURVE('',#115,#213);
#213 = DEFINITIONAL_REPRESENTATION('',(#214),#266);
#214 = B_SPLINE_CURVE_WITH_KNOTS('',8,(#215,#216,#217,#218,#219,#220,
    #221,#222,#223,#224,#225,#226,#227,#228,#229,#230,#231,#232,#233,
    #234,#235,#236,#237,#238,#239,#240,#241,#242,#243,#244,#245,#246,
    #247,#248,#249,#250,#251,#252,#253,#254,#255,#256,#257,#258,#259,
    #260,#261,#262,#263,#264,#265),.UNSPECIFIED.,.F.,.F.,(9,7,7,7,7,7,7,
    9),(0.,0.155010115258,0.286768414944,0.42288850453,0.578975170828,
    0.706694837364,0.827400674015,1.),.UNSPECIFIED.);
#215 = CARTESIAN_POINT('',(0.,19.058449234641));
#216 = CARTESIAN_POINT('',(0.104548285845,19.058449234641));
#217 = CARTESIAN_POINT('',(0.20891348818,19.052329765956));
#218 = CARTESIAN_POINT('',(0.314008689266,19.040126865957));
#219 = CARTESIAN_POINT('',(0.420643476347,19.02217100993));
#220 = CARTESIAN_POINT('',(0.529619268538,18.999110664576));
#221 = CARTESIAN_POINT('',(0.641770214424,18.972067211889));
#222 = CARTESIAN_POINT('',(0.75803512955,18.942819178368));
#223 = CARTESIAN_POINT('',(0.983014900428,18.889344107297));
#224 = CARTESIAN_POINT('',(1.094559645603,18.863996734069));
#225 = CARTESIAN_POINT('',(1.211320325837,18.840486877581));
#226 = CARTESIAN_POINT('',(1.331468227559,18.821952544737));
#227 = CARTESIAN_POINT('',(1.453723799611,18.811237453135));
#228 = CARTESIAN_POINT('',(1.576992601842,18.809643587841));
#229 = CARTESIAN_POINT('',(1.700244519571,18.816743143957));
#230 = CARTESIAN_POINT('',(1.948037706689,18.845428714859));
#231 = CARTESIAN_POINT('',(2.067906172393,18.866956882414));
#232 = CARTESIAN_POINT('',(2.182777983866,18.892897519165));
#233 = CARTESIAN_POINT('',(2.293343787465,18.920666013882));
#234 = CARTESIAN_POINT('',(2.400130631962,18.948081917501));
#235 = CARTESIAN_POINT('',(2.503568991666,18.973494464933));
#236 = CARTESIAN_POINT('',(2.604009874688,18.995744922649));
#237 = CARTESIAN_POINT('',(2.813869244181,19.035204279488));
#238 = CARTESIAN_POINT('',(2.924074436125,19.051501163681));
#239 = CARTESIAN_POINT('',(3.033117893533,19.061769949002));
#240 = CARTESIAN_POINT('',(3.141592653589,19.065274066595));
#241 = CARTESIAN_POINT('',(3.250067413646,19.061769949003));
#242 = CARTESIAN_POINT('',(3.359110871055,19.051501163681));
#243 = CARTESIAN_POINT('',(3.469316062999,19.035204279488));
#244 = CARTESIAN_POINT('',(3.673142349924,18.996879308778));
#245 = CARTESIAN_POINT('',(3.767029552014,18.976263538634));
#246 = CARTESIAN_POINT('',(3.863435029568,18.952867731193));
#247 = CARTESIAN_POINT('',(3.962712774668,18.927604116548));
#248 = CARTESIAN_POINT('',(4.06527837772,18.901744237322));
#249 = CARTESIAN_POINT('',(4.171614850743,18.876969993952));
#250 = CARTESIAN_POINT('',(4.282311654576,18.855323589638));
#251 = CARTESIAN_POINT('',(4.507782040434,18.823455909322));
#252 = CARTESIAN_POINT('',(4.620407254373,18.812897088228));
#253 = CARTESIAN_POINT('',(4.734367914037,18.809140161323));
#254 = CARTESIAN_POINT('',(4.848395090023,18.813258575949));
#255 = CARTESIAN_POINT('',(4.961294580245,18.824962631933));
#256 = CARTESIAN_POINT('',(5.071774691565,18.842471337045));
#257 = CARTESIAN_POINT('',(5.178154608531,18.863324763649));
#258 = CARTESIAN_POINT('',(5.420468480447,18.916250064444));
#259 = CARTESIAN_POINT('',(5.555262021688,18.950560903763));
#260 = CARTESIAN_POINT('',(5.684146651733,18.983708118922));
#261 = CARTESIAN_POINT('',(5.808425947727,19.012543311095));
#262 = CARTESIAN_POINT('',(5.929300003007,19.035211529541));
#263 = CARTESIAN_POINT('',(6.047879764305,19.050677203688));
#264 = CARTESIAN_POINT('',(6.165367513196,19.058449234641));
#265 = CARTESIAN_POINT('',(6.28318530718,19.058449234641));
#266 = ( GEOMETRIC_REPRESENTATION_CONTEXT(2) 
PARAMETRIC_REPRESENTATION_CONTEXT() REPRESENTATION_CONTEXT('2D SPACE',''
  ) );
#267 = PCURVE('',#268,#273);
#268 = CYLINDRICAL_SURFACE('',#269,12.);
#269 = AXIS2_PLACEMENT_3D('',#270,#271,#272);
#270 = CARTESIAN_POINT('',(0.,2.4,31.2));
#271 = DIRECTION('',(0.,1.,-1.110223024625E-16));
#272 = DIRECTION('',(1.,0.,0.));
#273 = DEFINITIONAL_REPRESENTATION('',(#274),#326);
#274 = B_SPLINE_CURVE_WITH_KNOTS('',8,(#275,#276,#277,#278,#279,#280,
    #281,#282,#283,#284,#285,#286,#287,#288,#289,#290,#291,#292,#293,
    #294,#295,#296,#297,#298,#299,#300,#301,#302,#303,#304,#305,#306,
    #307,#308,#309,#310,#311,#312,#313,#314,#315,#316,#317,#318,#319,
    #320,#321,#322,#323,#324,#325),.UNSPECIFIED.,.T.,.F.,(9,7,7,7,7,7,7,
    9),(0.,0.155010115258,0.286768414944,0.42288850453,0.578975170828,
    0.706694837364,0.827400674015,1.),.UNSPECIFIED.);
#275 = CARTESIAN_POINT('',(1.369438406005,-2.4));
#276 = CARTESIAN_POINT('',(1.369438406005,-2.149084113972));
#277 = CARTESIAN_POINT('',(1.371988311859,-1.898606642627));
#278 = CARTESIAN_POINT('',(1.377072372713,-1.650560943294));
#279 = CARTESIAN_POINT('',(1.384733017789,-1.407109197825));
#280 = CARTESIAN_POINT('',(1.395049510128,-1.171014991684));
#281 = CARTESIAN_POINT('',(1.408124933795,-0.945928993887));
#282 = CARTESIAN_POINT('',(1.424068937398,-0.736810577119));
#283 = CARTESIAN_POINT('',(1.459024132011,-0.392632569523));
#284 = CARTESIAN_POINT('',(1.477886482861,-0.244571063086));
#285 = CARTESIAN_POINT('',(1.499247929498,-0.119941367742));
#286 = CARTESIAN_POINT('',(1.522571218225,-2.86213013393E-02));
#287 = CARTESIAN_POINT('',(1.547146725372,2.289054013391E-02));
#288 = CARTESIAN_POINT('',(1.572196454688,3.144300958889E-02));
#289 = CARTESIAN_POINT('',(1.596915544338,-2.656102856231E-03));
#290 = CARTESIAN_POINT('',(1.644976691276,-0.150552886243));
#291 = CARTESIAN_POINT('',(1.667357388595,-0.264216034516));
#292 = CARTESIAN_POINT('',(1.687475623492,-0.40812840328));
#293 = CARTESIAN_POINT('',(1.705234974125,-0.57554030063));
#294 = CARTESIAN_POINT('',(1.720606399278,-0.760745254238));
#295 = CARTESIAN_POINT('',(1.733608230392,-0.958879842713));
#296 = CARTESIAN_POINT('',(1.74429973209,-1.165835976135));
#297 = CARTESIAN_POINT('',(1.762470495927,-1.62156341949));
#298 = CARTESIAN_POINT('',(1.769389988847,-1.875558623607));
#299 = CARTESIAN_POINT('',(1.773537645041,-2.136179404455));
#300 = CARTESIAN_POINT('',(1.774919659854,-2.399999999998));
#301 = CARTESIAN_POINT('',(1.773537645041,-2.663820595544));
#302 = CARTESIAN_POINT('',(1.769389988847,-2.924441376395));
#303 = CARTESIAN_POINT('',(1.762470495927,-3.178436580513));
#304 = CARTESIAN_POINT('',(1.744822109141,-3.621062672705));
#305 = CARTESIAN_POINT('',(1.73493676468,-3.815122054347));
#306 = CARTESIAN_POINT('',(1.723043903352,-4.001453284993));
#307 = CARTESIAN_POINT('',(1.709090855876,-4.176911561613));
#308 = CARTESIAN_POINT('',(1.693046314983,-4.33773091984));
#309 = CARTESIAN_POINT('',(1.674909953066,-4.479418310697));
#310 = CARTESIAN_POINT('',(1.654730294183,-4.596566077587));
#311 = CARTESIAN_POINT('',(1.611761135939,-4.763784111887));
#312 = CARTESIAN_POINT('',(1.58947908961,-4.816003420792));
#313 = CARTESIAN_POINT('',(1.566415474763,-4.833348035565));
#314 = CARTESIAN_POINT('',(1.543277298337,-4.813419491829));
#315 = CARTESIAN_POINT('',(1.520783509867,-4.757089525816));
#316 = CARTESIAN_POINT('',(1.499619288093,-4.668400169316));
#317 = CARTESIAN_POINT('',(1.480361768454,-4.554626726034));
#318 = CARTESIAN_POINT('',(1.439206288976,-4.243014889151));
#319 = CARTESIAN_POINT('',(1.418744929359,-4.022585706626));
#320 = CARTESIAN_POINT('',(1.402007601569,-3.777354849099));
#321 = CARTESIAN_POINT('',(1.388852182166,-3.515626925631));
#322 = CARTESIAN_POINT('',(1.379121302558,-3.243348803979));
#323 = CARTESIAN_POINT('',(1.372676646616,-2.964732210265));
#324 = CARTESIAN_POINT('',(1.369438406005,-2.682762705562));
#325 = CARTESIAN_POINT('',(1.369438406005,-2.4));
#326 = ( GEOMETRIC_REPRESENTATION_CONTEXT(2) 
PARAMETRIC_REPRESENTATION_CONTEXT() REPRESENTATION_CONTEXT('2D SPACE',''
  ) );
#327 = ORIENTED_EDGE('',*,*,#328,.F.);
#328 = EDGE_CURVE('',#329,#157,#331,.T.);
#329 = VERTEX_POINT('',#330);
#330 = CARTESIAN_POINT('',(7.347880794884E-16,2.4,19.2));
#331 = SURFACE_CURVE('',#332,(#384,#439),.PCURVE_S1.);
#332 = B_SPLINE_CURVE_WITH_KNOTS('',8,(#333,#334,#335,#336,#337,#338,
    #339,#340,#341,#342,#343,#344,#345,#346,#347,#348,#349,#350,#351,
    #352,#353,#354,#355,#356,#357,#358,#359,#360,#361,#362,#363,#364,
    #365,#366,#367,#368,#369,#370,#371,#372,#373,#374,#375,#376,#377,
    #378,#379,#380,#381,#382,#383),.UNSPECIFIED.,.T.,.F.,(9,7,7,7,7,7,7,
    9),(0.,0.155010115258,0.286768414944,0.42288850453,0.578975170828,
    0.706694837364,0.827400674015,1.),.UNSPECIFIED.);
#333 = CARTESIAN_POINT('',(2.4,-4.440892098501E-16,19.442449234641));
#334 = CARTESIAN_POINT('',(2.4,0.250915886028,19.442449234641));
#335 = CARTESIAN_POINT('',(2.370019297696,0.501393357373,19.436329765956
    ));
#336 = CARTESIAN_POINT('',(2.310243437066,0.749439056706,19.424126865957
    ));
#337 = CARTESIAN_POINT('',(2.220085135229,0.992890802175,19.40617100993)
  );
#338 = CARTESIAN_POINT('',(2.098442206213,1.228985008316,19.383110664576
    ));
#339 = CARTESIAN_POINT('',(1.943846853597,1.454071006113,19.356067211889
    ));
#340 = CARTESIAN_POINT('',(1.754704156753,1.663189422881,19.326819178368
    ));
#341 = CARTESIAN_POINT('',(1.338664413991,2.007367430477,19.273344107297
    ));
#342 = CARTESIAN_POINT('',(1.11371197803,2.155428936914,19.247996734069)
  );
#343 = CARTESIAN_POINT('',(0.858364781506,2.280058632259,19.224486877581
    ));
#344 = CARTESIAN_POINT('',(0.578904127487,2.37137869866,19.205952544737)
  );
#345 = CARTESIAN_POINT('',(0.283913578261,2.422890540134,19.195237453135
    ));
#346 = CARTESIAN_POINT('',(-1.689204600331E-02,2.431443009589,
    19.193643587841));
#347 = CARTESIAN_POINT('',(-0.313535345892,2.397343897144,
    19.200743143957));
#348 = CARTESIAN_POINT('',(-0.889555286256,2.249447113757,
    19.229428714859));
#349 = CARTESIAN_POINT('',(-1.157384711447,2.135783965485,
    19.250956882414));
#350 = CARTESIAN_POINT('',(-1.397542709967,1.99187159672,19.276897519165
    ));
#351 = CARTESIAN_POINT('',(-1.608926394646,1.82445969937,19.304666013882
    ));
#352 = CARTESIAN_POINT('',(-1.791374335442,1.639254745762,
    19.332081917501));
#353 = CARTESIAN_POINT('',(-1.945329760354,1.441120157287,
    19.357494464933));
#354 = CARTESIAN_POINT('',(-2.071687082227,1.234164023865,
    19.379744922649));
#355 = CARTESIAN_POINT('',(-2.286136139038,0.77843658051,19.419204279488
    ));
#356 = CARTESIAN_POINT('',(-2.367565303805,0.524441376393,
    19.435501163681));
#357 = CARTESIAN_POINT('',(-2.416266317012,0.263820595545,
    19.445769949002));
#358 = CARTESIAN_POINT('',(-2.432473983787,1.993960552227E-12,
    19.449274066595));
#359 = CARTESIAN_POINT('',(-2.416266317014,-0.263820595544,
    19.445769949003));
#360 = CARTESIAN_POINT('',(-2.367565303805,-0.524441376395,
    19.435501163681));
#361 = CARTESIAN_POINT('',(-2.286136139037,-0.778436580513,
    19.419204279488));
#362 = CARTESIAN_POINT('',(-2.077852110119,-1.221062672705,
    19.380879308778));
#363 = CARTESIAN_POINT('',(-1.961030128812,-1.415122054347,
    19.360263538634));
#364 = CARTESIAN_POINT('',(-1.820233335858,-1.601453284993,
    19.336867731193));
#365 = CARTESIAN_POINT('',(-1.654682932711,-1.776911561613,
    19.311604116548));
#366 = CARTESIAN_POINT('',(-1.463828135053,-1.93773091984,
    19.285744237322));
#367 = CARTESIAN_POINT('',(-1.247507420307,-2.079418310697,
    19.260969993952));
#368 = CARTESIAN_POINT('',(-1.006227890692,-2.196566077587,
    19.239323589638));
#369 = CARTESIAN_POINT('',(-0.491583699408,-2.363784111887,
    19.207455909322));
#370 = CARTESIAN_POINT('',(-0.224340660066,-2.416003420792,
    19.196897088228));
#371 = CARTESIAN_POINT('',(5.255236528256E-02,-2.433348035565,
    19.193140161323));
#372 = CARTESIAN_POINT('',(0.330406330818,-2.413419491829,
    19.197258575949));
#373 = CARTESIAN_POINT('',(0.600265441411,-2.357089525816,
    19.208962631933));
#374 = CARTESIAN_POINT('',(0.853729676059,-2.268400169316,
    19.226471337045));
#375 = CARTESIAN_POINT('',(1.083910867503,-2.154626726034,
    19.247324763649));
#376 = CARTESIAN_POINT('',(1.574932552612,-1.843014889151,
    19.300250064444));
#377 = CARTESIAN_POINT('',(1.81819293072,-1.622585706626,19.334560903763
    ));
#378 = CARTESIAN_POINT('',(2.016369430773,-1.377354849099,
    19.367708118922));
#379 = CARTESIAN_POINT('',(2.171599936457,-1.115626925631,
    19.396543311095));
#380 = CARTESIAN_POINT('',(2.286153132308,-0.843348803979,
    19.419211529541));
#381 = CARTESIAN_POINT('',(2.361926161191,-0.564732210265,
    19.434677203688));
#382 = CARTESIAN_POINT('',(2.4,-0.282762705562,19.442449234641));
#383 = CARTESIAN_POINT('',(2.4,-4.440892098501E-16,19.442449234641));
#384 = PCURVE('',#115,#385);
#385 = DEFINITIONAL_REPRESENTATION('',(#386),#438);
#386 = B_SPLINE_CURVE_WITH_KNOTS('',8,(#387,#388,#389,#390,#391,#392,
    #393,#394,#395,#396,#397,#398,#399,#400,#401,#402,#403,#404,#405,
    #406,#407,#408,#409,#410,#411,#412,#413,#414,#415,#416,#417,#418,
    #419,#420,#421,#422,#423,#424,#425,#426,#427,#428,#429,#430,#431,
    #432,#433,#434,#435,#436,#437),.UNSPECIFIED.,.F.,.F.,(9,7,7,7,7,7,7,
    9),(0.,0.155010115258,0.286768414944,0.42288850453,0.578975170828,
    0.706694837364,0.827400674015,1.),.UNSPECIFIED.);
#387 = CARTESIAN_POINT('',(0.,19.058449234641));
#388 = CARTESIAN_POINT('',(0.104548285845,19.058449234641));
#389 = CARTESIAN_POINT('',(0.20891348818,19.052329765956));
#390 = CARTESIAN_POINT('',(0.314008689266,19.040126865957));
#391 = CARTESIAN_POINT('',(0.420643476347,19.02217100993));
#392 = CARTESIAN_POINT('',(0.529619268538,18.999110664576));
#393 = CARTESIAN_POINT('',(0.641770214424,18.972067211889));
#394 = CARTESIAN_POINT('',(0.75803512955,18.942819178368));
#395 = CARTESIAN_POINT('',(0.983014900428,18.889344107297));
#396 = CARTESIAN_POINT('',(1.094559645603,18.863996734069));
#397 = CARTESIAN_POINT('',(1.211320325837,18.840486877581));
#398 = CARTESIAN_POINT('',(1.331468227559,18.821952544737));
#399 = CARTESIAN_POINT('',(1.453723799611,18.811237453135));
#400 = CARTESIAN_POINT('',(1.576992601842,18.809643587841));
#401 = CARTESIAN_POINT('',(1.700244519571,18.816743143957));
#402 = CARTESIAN_POINT('',(1.948037706689,18.845428714859));
#403 = CARTESIAN_POINT('',(2.067906172393,18.866956882414));
#404 = CARTESIAN_POINT('',(2.182777983866,18.892897519165));
#405 = CARTESIAN_POINT('',(2.293343787465,18.920666013882));
#406 = CARTESIAN_POINT('',(2.400130631962,18.948081917501));
#407 = CARTESIAN_POINT('',(2.503568991666,18.973494464933));
#408 = CARTESIAN_POINT('',(2.604009874688,18.995744922649));
#409 = CARTESIAN_POINT('',(2.813869244181,19.035204279488));
#410 = CARTESIAN_POINT('',(2.924074436125,19.051501163681));
#411 = CARTESIAN_POINT('',(3.033117893533,19.061769949002));
#412 = CARTESIAN_POINT('',(3.141592653589,19.065274066595));
#413 = CARTESIAN_POINT('',(3.250067413646,19.061769949003));
#414 = CARTESIAN_POINT('',(3.359110871055,19.051501163681));
#415 = CARTESIAN_POINT('',(3.469316062999,19.035204279488));
#416 = CARTESIAN_POINT('',(3.673142349924,18.996879308778));
#417 = CARTESIAN_POINT('',(3.767029552014,18.976263538634));
#418 = CARTESIAN_POINT('',(3.863435029568,18.952867731193));
#419 = CARTESIAN_POINT('',(3.962712774668,18.927604116548));
#420 = CARTESIAN_POINT('',(4.06527837772,18.901744237322));
#421 = CARTESIAN_POINT('',(4.171614850743,18.876969993952));
#422 = CARTESIAN_POINT('',(4.282311654576,18.855323589638));
#423 = CARTESIAN_POINT('',(4.507782040434,18.823455909322));
#424 = CARTESIAN_POINT('',(4.620407254373,18.812897088228));
#425 = CARTESIAN_POINT('',(4.734367914037,18.809140161323));
#426 = CARTESIAN_POINT('',(4.848395090023,18.813258575949));
#427 = CARTESIAN_POINT('',(4.961294580245,18.824962631933));
#428 = CARTESIAN_POINT('',(5.071774691565,18.842471337045));
#429 = CARTESIAN_POINT('',(5.178154608531,18.863324763649));
#430 = CARTESIAN_POINT('',(5.420468480447,18.916250064444));
#431 = CARTESIAN_POINT('',(5.555262021688,18.950560903763));
#432 = CARTESIAN_POINT('',(5.684146651733,18.983708118922));
#433 = CARTESIAN_POINT('',(5.808425947727,19.012543311095));
#434 = CARTESIAN_POINT('',(5.929300003007,19.035211529541));
#435 = CARTESIAN_POINT('',(6.047879764305,19.050677203688));
#436 = CARTESIAN_POINT('',(6.165367513196,19.058449234641));
#437 = CARTESIAN_POINT('',(6.28318530718,19.058449234641));
#438 = ( GEOMETRIC_REPRESENTATION_CONTEXT(2) 
PARAMETRIC_REPRESENTATION_CONTEXT() REPRESENTATION_CONTEXT('2D SPACE',''
  ) );
#439 = PCURVE('',#268,#440);
#440 = DEFINITIONAL_REPRESENTATION('',(#441),#493);
#441 = B_SPLINE_CURVE_WITH_KNOTS('',8,(#442,#443,#444,#445,#446,#447,
    #448,#449,#450,#451,#452,#453,#454,#455,#456,#457,#458,#459,#460,
    #461,#462,#463,#464,#465,#466,#467,#468,#469,#470,#471,#472,#473,
    #474,#475,#476,#477,#478,#479,#480,#481,#482,#483,#484,#485,#486,
    #487,#488,#489,#490,#491,#492),.UNSPECIFIED.,.T.,.F.,(9,7,7,7,7,7,7,
    9),(0.,0.155010115258,0.286768414944,0.42288850453,0.578975170828,
    0.706694837364,0.827400674015,1.),.UNSPECIFIED.);
#442 = CARTESIAN_POINT('',(1.369438406005,-2.4));
#443 = CARTESIAN_POINT('',(1.369438406005,-2.149084113972));
#444 = CARTESIAN_POINT('',(1.371988311859,-1.898606642627));
#445 = CARTESIAN_POINT('',(1.377072372713,-1.650560943294));
#446 = CARTESIAN_POINT('',(1.384733017789,-1.407109197825));
#447 = CARTESIAN_POINT('',(1.395049510128,-1.171014991684));
#448 = CARTESIAN_POINT('',(1.408124933795,-0.945928993887));
#449 = CARTESIAN_POINT('',(1.424068937398,-0.736810577119));
#450 = CARTESIAN_POINT('',(1.459024132011,-0.392632569523));
#451 = CARTESIAN_POINT('',(1.477886482861,-0.244571063086));
#452 = CARTESIAN_POINT('',(1.499247929498,-0.119941367742));
#453 = CARTESIAN_POINT('',(1.522571218225,-2.86213013393E-02));
#454 = CARTESIAN_POINT('',(1.547146725372,2.289054013391E-02));
#455 = CARTESIAN_POINT('',(1.572196454688,3.144300958889E-02));
#456 = CARTESIAN_POINT('',(1.596915544338,-2.656102856231E-03));
#457 = CARTESIAN_POINT('',(1.644976691276,-0.150552886243));
#458 = CARTESIAN_POINT('',(1.667357388595,-0.264216034516));
#459 = CARTESIAN_POINT('',(1.687475623492,-0.40812840328));
#460 = CARTESIAN_POINT('',(1.705234974125,-0.57554030063));
#461 = CARTESIAN_POINT('',(1.720606399278,-0.760745254238));
#462 = CARTESIAN_POINT('',(1.733608230392,-0.958879842713));
#463 = CARTESIAN_POINT('',(1.74429973209,-1.165835976135));
#464 = CARTESIAN_POINT('',(1.762470495927,-1.62156341949));
#465 = CARTESIAN_POINT('',(1.769389988847,-1.875558623607));
#466 = CARTESIAN_POINT('',(1.773537645041,-2.136179404455));
#467 = CARTESIAN_POINT('',(1.774919659854,-2.399999999998));
#468 = CARTESIAN_POINT('',(1.773537645041,-2.663820595544));
#469 = CARTESIAN_POINT('',(1.769389988847,-2.924441376395));
#470 = CARTESIAN_POINT('',(1.762470495927,-3.178436580513));
#471 = CARTESIAN_POINT('',(1.744822109141,-3.621062672705));
#472 = CARTESIAN_POINT('',(1.73493676468,-3.815122054347));
#473 = CARTESIAN_POINT('',(1.723043903352,-4.001453284993));
#474 = CARTESIAN_POINT('',(1.709090855876,-4.176911561613));
#475 = CARTESIAN_POINT('',(1.693046314983,-4.33773091984));
#476 = CARTESIAN_POINT('',(1.674909953066,-4.479418310697));
#477 = CARTESIAN_POINT('',(1.654730294183,-4.596566077587));
#478 = CARTESIAN_POINT('',(1.611761135939,-4.763784111887));
#479 = CARTESIAN_POINT('',(1.58947908961,-4.816003420792));
#480 = CARTESIAN_POINT('',(1.566415474763,-4.833348035565));
#481 = CARTESIAN_POINT('',(1.543277298337,-4.813419491829));
#482 = CARTESIAN_POINT('',(1.520783509867,-4.757089525816));
#483 = CARTESIAN_POINT('',(1.499619288093,-4.668400169316));
#484 = CARTESIAN_POINT('',(1.480361768454,-4.554626726034));
#485 = CARTESIAN_POINT('',(1.439206288976,-4.243014889151));
#486 = CARTESIAN_POINT('',(1.418744929359,-4.022585706626));
#487 = CARTESIAN_POINT('',(1.402007601569,-3.777354849099));
#488 = CARTESIAN_POINT('',(1.388852182166,-3.515626925631));
#489 = CARTESIAN_POINT('',(1.379121302558,-3.243348803979));
#490 = CARTESIAN_POINT('',(1.372676646616,-2.964732210265));
#491 = CARTESIAN_POINT('',(1.369438406005,-2.682762705562));
#492 = CARTESIAN_POINT('',(1.369438406005,-2.4));
#493 = ( GEOMETRIC_REPRESENTATION_CONTEXT(2) 
PARAMETRIC_REPRESENTATION_CONTEXT() REPRESENTATION_CONTEXT('2D SPACE',''
  ) );
#494 = ORIENTED_EDGE('',*,*,#495,.F.);
#495 = EDGE_CURVE('',#132,#329,#496,.T.);
#496 = SURFACE_CURVE('',#497,(#549,#604),.PCURVE_S1.);
#497 = B_SPLINE_CURVE_WITH_KNOTS('',8,(#498,#499,#500,#501,#502,#503,
    #504,#505,#506,#507,#508,#509,#510,#511,#512,#513,#514,#515,#516,
    #517,#518,#519,#520,#521,#522,#523,#524,#525,#526,#527,#528,#529,
    #530,#531,#532,#533,#534,#535,#536,#537,#538,#539,#540,#541,#542,
    #543,#544,#545,#546,#547,#548),.UNSPECIFIED.,.T.,.F.,(9,7,7,7,7,7,7,
    9),(0.,0.155010115258,0.286768414944,0.42288850453,0.578975170828,
    0.706694837364,0.827400674015,1.),.UNSPECIFIED.);
#498 = CARTESIAN_POINT('',(2.4,-4.440892098501E-16,19.442449234641));
#499 = CARTESIAN_POINT('',(2.4,0.250915886028,19.442449234641));
#500 = CARTESIAN_POINT('',(2.370019297696,0.501393357373,19.436329765956
    ));
#501 = CARTESIAN_POINT('',(2.310243437066,0.749439056706,19.424126865957
    ));
#502 = CARTESIAN_POINT('',(2.220085135229,0.992890802175,19.40617100993)
  );
#503 = CARTESIAN_POINT('',(2.098442206213,1.228985008316,19.383110664576
    ));
#504 = CARTESIAN_POINT('',(1.943846853597,1.454071006113,19.356067211889
    ));
#505 = CARTESIAN_POINT('',(1.754704156753,1.663189422881,19.326819178368
    ));
#506 = CARTESIAN_POINT('',(1.338664413991,2.007367430477,19.273344107297
    ));
#507 = CARTESIAN_POINT('',(1.11371197803,2.155428936914,19.247996734069)
  );
#508 = CARTESIAN_POINT('',(0.858364781506,2.280058632259,19.224486877581
    ));
#509 = CARTESIAN_POINT('',(0.578904127487,2.37137869866,19.205952544737)
  );
#510 = CARTESIAN_POINT('',(0.283913578261,2.422890540134,19.195237453135
    ));
#511 = CARTESIAN_POINT('',(-1.689204600331E-02,2.431443009589,
    19.193643587841));
#512 = CARTESIAN_POINT('',(-0.313535345892,2.397343897144,
    19.200743143957));
#513 = CARTESIAN_POINT('',(-0.889555286256,2.249447113757,
    19.229428714859));
#514 = CARTESIAN_POINT('',(-1.157384711447,2.135783965485,
    19.250956882414));
#515 = CARTESIAN_POINT('',(-1.397542709967,1.99187159672,19.276897519165
    ));
#516 = CARTESIAN_POINT('',(-1.608926394646,1.82445969937,19.304666013882
    ));
#517 = CARTESIAN_POINT('',(-1.791374335442,1.639254745762,
    19.332081917501));
#518 = CARTESIAN_POINT('',(-1.945329760354,1.441120157287,
    19.357494464933));
#519 = CARTESIAN_POINT('',(-2.071687082227,1.234164023865,
    19.379744922649));
#520 = CARTESIAN_POINT('',(-2.286136139038,0.77843658051,19.419204279488
    ));
#521 = CARTESIAN_POINT('',(-2.367565303805,0.524441376393,
    19.435501163681));
#522 = CARTESIAN_POINT('',(-2.416266317012,0.263820595545,
    19.445769949002));
#523 = CARTESIAN_POINT('',(-2.432473983787,1.993960552227E-12,
    19.449274066595));
#524 = CARTESIAN_POINT('',(-2.416266317014,-0.263820595544,
    19.445769949003));
#525 = CARTESIAN_POINT('',(-2.367565303805,-0.524441376395,
    19.435501163681));
#526 = CARTESIAN_POINT('',(-2.286136139037,-0.778436580513,
    19.419204279488));
#527 = CARTESIAN_POINT('',(-2.077852110119,-1.221062672705,
    19.380879308778));
#528 = CARTESIAN_POINT('',(-1.961030128812,-1.415122054347,
    19.360263538634));
#529 = CARTESIAN_POINT('',(-1.820233335858,-1.601453284993,
    19.336867731193));
#530 = CARTESIAN_POINT('',(-1.654682932711,-1.776911561613,
    19.311604116548));
#531 = CARTESIAN_POINT('',(-1.463828135053,-1.93773091984,
    19.285744237322));
#532 = CARTESIAN_POINT('',(-1.247507420307,-2.079418310697,
    19.260969993952));
#533 = CARTESIAN_POINT('',(-1.006227890692,-2.196566077587,
    19.239323589638));
#534 = CARTESIAN_POINT('',(-0.491583699408,-2.363784111887,
    19.207455909322));
#535 = CARTESIAN_POINT('',(-0.224340660066,-2.416003420792,
    19.196897088228));
#536 = CARTESIAN_POINT('',(5.255236528256E-02,-2.433348035565,
    19.193140161323));
#537 = CARTESIAN_POINT('',(0.330406330818,-2.413419491829,
    19.197258575949));
#538 = CARTESIAN_POINT('',(0.600265441411,-2.357089525816,
    19.208962631933));
#539 = CARTESIAN_POINT('',(0.853729676059,-2.268400169316,
    19.226471337045));
#540 = CARTESIAN_POINT('',(1.083910867503,-2.154626726034,
    19.247324763649));
#541 = CARTESIAN_POINT('',(1.574932552612,-1.843014889151,
    19.300250064444));
#542 = CARTESIAN_POINT('',(1.81819293072,-1.622585706626,19.334560903763
    ));
#543 = CARTESIAN_POINT('',(2.016369430773,-1.377354849099,
    19.367708118922));
#544 = CARTESIAN_POINT('',(2.171599936457,-1.115626925631,
    19.396543311095));
#545 = CARTESIAN_POINT('',(2.286153132308,-0.843348803979,
    19.419211529541));
#546 = CARTESIAN_POINT('',(2.361926161191,-0.564732210265,
    19.434677203688));
#547 = CARTESIAN_POINT('',(2.4,-0.282762705562,19.442449234641));
#548 = CARTESIAN_POINT('',(2.4,-4.440892098501E-16,19.442449234641));
#549 = PCURVE('',#115,#550);
#550 = DEFINITIONAL_REPRESENTATION('',(#551),#603);
#551 = B_SPLINE_CURVE_WITH_KNOTS('',8,(#552,#553,#554,#555,#556,#557,
    #558,#559,#560,#561,#562,#563,#564,#565,#566,#567,#568,#569,#570,
    #571,#572,#573,#574,#575,#576,#577,#578,#579,#580,#581,#582,#583,
    #584,#585,#586,#587,#588,#589,#590,#591,#592,#593,#594,#595,#596,
    #597,#598,#599,#600,#601,#602),.UNSPECIFIED.,.F.,.F.,(9,7,7,7,7,7,7,
    9),(0.,0.155010115258,0.286768414944,0.42288850453,0.578975170828,
    0.706694837364,0.827400674015,1.),.UNSPECIFIED.);
#552 = CARTESIAN_POINT('',(0.,19.058449234641));
#553 = CARTESIAN_POINT('',(0.104548285845,19.058449234641));
#554 = CARTESIAN_POINT('',(0.20891348818,19.052329765956));
#555 = CARTESIAN_POINT('',(0.314008689266,19.040126865957));
#556 = CARTESIAN_POINT('',(0.420643476347,19.02217100993));
#557 = CARTESIAN_POINT('',(0.529619268538,18.999110664576));
#558 = CARTESIAN_POINT('',(0.641770214424,18.972067211889));
#559 = CARTESIAN_POINT('',(0.75803512955,18.942819178368));
#560 = CARTESIAN_POINT('',(0.983014900428,18.889344107297));
#561 = CARTESIAN_POINT('',(1.094559645603,18.863996734069));
#562 = CARTESIAN_POINT('',(1.211320325837,18.840486877581));
#563 = CARTESIAN_POINT('',(1.331468227559,18.821952544737));
#564 = CARTESIAN_POINT('',(1.453723799611,18.811237453135));
#565 = CARTESIAN_POINT('',(1.576992601842,18.809643587841));
#566 = CARTESIAN_POINT('',(1.700244519571,18.816743143957));
#567 = CARTESIAN_POINT('',(1.948037706689,18.845428714859));
#568 = CARTESIAN_POINT('',(2.067906172393,18.866956882414));
#569 = CARTESIAN_POINT('',(2.182777983866,18.892897519165));
#570 = CARTESIAN_POINT('',(2.293343787465,18.920666013882));
#571 = CARTESIAN_POINT('',(2.400130631962,18.948081917501));
#572 = CARTESIAN_POINT('',(2.503568991666,18.973494464933));
#573 = CARTESIAN_POINT('',(2.604009874688,18.995744922649));
#574 = CARTESIAN_POINT('',(2.813869244181,19.035204279488));
#575 = CARTESIAN_POINT('',(2.924074436125,19.051501163681));
#576 = CARTESIAN_POINT('',(3.033117893533,19.061769949002));
#577 = CARTESIAN_POINT('',(3.141592653589,19.065274066595));
#578 = CARTESIAN_POINT('',(3.250067413646,19.061769949003));
#579 = CARTESIAN_POINT('',(3.359110871055,19.051501163681));
#580 = CARTESIAN_POINT('',(3.469316062999,19.035204279488));
#581 = CARTESIAN_POINT('',(3.673142349924,18.996879308778));
#582 = CARTESIAN_POINT('',(3.767029552014,18.976263538634));
#583 = CARTESIAN_POINT('',(3.863435029568,18.952867731193));
#584 = CARTESIAN_POINT('',(3.962712774668,18.927604116548));
#585 = CARTESIAN_POINT('',(4.06527837772,18.901744237322));
#586 = CARTESIAN_POINT('',(4.171614850743,18.876969993952));
#587 = CARTESIAN_POINT('',(4.282311654576,18.855323589638));
#588 = CARTESIAN_POINT('',(4.507782040434,18.823455909322));
#589 = CARTESIAN_POINT('',(4.620407254373,18.812897088228));
#590 = CARTESIAN_POINT('',(4.734367914037,18.809140161323));
#591 = CARTESIAN_POINT('',(4.848395090023,18.813258575949));
#592 = CARTESIAN_POINT('',(4.961294580245,18.824962631933));
#593 = CARTESIAN_POINT('',(5.071774691565,18.842471337045));
#594 = CARTESIAN_POINT('',(5.178154608531,18.863324763649));
#595 = CARTESIAN_POINT('',(5.420468480447,18.916250064444));
#596 = CARTESIAN_POINT('',(5.555262021688,18.950560903763));
#597 = CARTESIAN_POINT('',(5.684146651733,18.983708118922));
#598 = CARTESIAN_POINT('',(5.808425947727,19.012543311095));
#599 = CARTESIAN_POINT('',(5.929300003007,19.035211529541));
#600 = CARTESIAN_POINT('',(6.047879764305,19.050677203688));
#601 = CARTESIAN_POINT('',(6.165367513196,19.058449234641));
#602 = CARTESIAN_POINT('',(6.28318530718,19.058449234641));
#603 = ( GEOMETRIC_REPRESENTATION_CONTEXT(2) 
PARAMETRIC_REPRESENTATION_CONTEXT() REPRESENTATION_CONTEXT('2D SPACE',''
  ) );
#604 = PCURVE('',#268,#605);
#605 = DEFINITIONAL_REPRESENTATION('',(#606),#658);
#606 = B_SPLINE_CURVE_WITH_KNOTS('',8,(#607,#608,#609,#610,#611,#612,
    #613,#614,#615,#616,#617,#618,#619,#620,#621,#622,#623,#624,#625,
    #626,#627,#628,#629,#630,#631,#632,#633,#634,#635,#636,#637,#638,
    #639,#640,#641,#642,#643,#644,#645,#646,#647,#648,#649,#650,#651,
    #652,#653,#654,#655,#656,#657),.UNSPECIFIED.,.T.,.F.,(9,7,7,7,7,7,7,
    9),(0.,0.155010115258,0.286768414944,0.42288850453,0.578975170828,
    0.706694837364,0.827400674015,1.),.UNSPECIFIED.);
#607 = CARTESIAN_POINT('',(1.369438406005,-2.4));
#608 = CARTESIAN_POINT('',(1.369438406005,-2.149084113972));
#609 = CARTESIAN_POINT('',(1.371988311859,-1.898606642627));
#610 = CARTESIAN_POINT('',(1.377072372713,-1.650560943294));
#611 = CARTESIAN_POINT('',(1.384733017789,-1.407109197825));
#612 = CARTESIAN_POINT('',(1.395049510128,-1.171014991684));
#613 = CARTESIAN_POINT('',(1.408124933795,-0.945928993887));
#614 = CARTESIAN_POINT('',(1.424068937398,-0.736810577119));
#615 = CARTESIAN_POINT('',(1.459024132011,-0.392632569523));
#616 = CARTESIAN_POINT('',(1.477886482861,-0.244571063086));
#617 = CARTESIAN_POINT('',(1.499247929498,-0.119941367742));
#618 = CARTESIAN_POINT('',(1.522571218225,-2.86213013393E-02));
#619 = CARTESIAN_POINT('',(1.547146725372,2.289054013391E-02));
#620 = CARTESIAN_POINT('',(1.572196454688,3.144300958889E-02));
#621 = CARTESIAN_POINT('',(1.596915544338,-2.656102856231E-03));
#622 = CARTESIAN_POINT('',(1.644976691276,-0.150552886243));
#623 = CARTESIAN_POINT('',(1.667357388595,-0.264216034516));
#624 = CARTESIAN_POINT('',(1.687475623492,-0.40812840328));
#625 = CARTESIAN_POINT('',(1.705234974125,-0.57554030063));
#626 = CARTESIAN_POINT('',(1.720606399278,-0.760745254238));
#627 = CARTESIAN_POINT('',(1.733608230392,-0.958879842713));
#628 = CARTESIAN_POINT('',(1.74429973209,-1.165835976135));
#629 = CARTESIAN_POINT('',(1.762470495927,-1.62156341949));
#630 = CARTESIAN_POINT('',(1.769389988847,-1.875558623607));
#631 = CARTESIAN_POINT('',(1.773537645041,-2.136179404455));
#632 = CARTESIAN_POINT('',(1.774919659854,-2.399999999998));
#633 = CARTESIAN_POINT('',(1.773537645041,-2.663820595544));
#634 = CARTESIAN_POINT('',(1.769389988847,-2.924441376395));
#635 = CARTESIAN_POINT('',(1.762470495927,-3.178436580513));
#636 = CARTESIAN_POINT('',(1.744822109141,-3.621062672705));
#637 = CARTESIAN_POINT('',(1.73493676468,-3.815122054347));
#638 = CARTESIAN_POINT('',(1.723043903352,-4.001453284993));
#639 = CARTESIAN_POINT('',(1.709090855876,-4.176911561613));
#640 = CARTESIAN_POINT('',(1.693046314983,-4.33773091984));
#641 = CARTESIAN_POINT('',(1.674909953066,-4.479418310697));
#642 = CARTESIAN_POINT('',(1.654730294183,-4.596566077587));
#643 = CARTESIAN_POINT('',(1.611761135939,-4.763784111887));
#644 = CARTESIAN_POINT('',(1.58947908961,-4.816003420792));
#645 = CARTESIAN_POINT('',(1.566415474763,-4.833348035565));
#646 = CARTESIAN_POINT('',(1.543277298337,-4.813419491829));
#647 = CARTESIAN_POINT('',(1.520783509867,-4.757089525816));
#648 = CARTESIAN_POINT('',(1.499619288093,-4.668400169316));
#649 = CARTESIAN_POINT('',(1.480361768454,-4.554626726034));
#650 = CARTESIAN_POINT('',(1.439206288976,-4.243014889151));
#651 = CARTESIAN_POINT('',(1.418744929359,-4.022585706626));
#652 = CARTESIAN_POINT('',(1.402007601569,-3.777354849099));
#653 = CARTESIAN_POINT('',(1.388852182166,-3.515626925631));
#654 = CARTESIAN_POINT('',(1.379121302558,-3.243348803979));
#655 = CARTESIAN_POINT('',(1.372676646616,-2.964732210265));
#656 = CARTESIAN_POINT('',(1.369438406005,-2.682762705562));
#657 = CARTESIAN_POINT('',(1.369438406005,-2.4));
#658 = ( GEOMETRIC_REPRESENTATION_CONTEXT(2) 
PARAMETRIC_REPRESENTATION_CONTEXT() REPRESENTATION_CONTEXT('2D SPACE',''
  ) );
#659 = ADVANCED_FACE('',(#660),#268,.T.);
#660 = FACE_BOUND('',#661,.T.);
#661 = EDGE_LOOP('',(#662,#691,#714,#741,#742,#743,#744,#766,#767));
#662 = ORIENTED_EDGE('',*,*,#663,.F.);
#663 = EDGE_CURVE('',#664,#329,#666,.T.);
#664 = VERTEX_POINT('',#665);
#665 = CARTESIAN_POINT('',(12.,2.4,31.2));
#666 = SURFACE_CURVE('',#667,(#672,#679),.PCURVE_S1.);
#667 = CIRCLE('',#668,12.);
#668 = AXIS2_PLACEMENT_3D('',#669,#670,#671);
#669 = CARTESIAN_POINT('',(0.,2.4,31.2));
#670 = DIRECTION('',(0.,1.,-1.110223024625E-16));
#671 = DIRECTION('',(1.,0.,0.));
#672 = PCURVE('',#268,#673);
#673 = DEFINITIONAL_REPRESENTATION('',(#674),#678);
#674 = LINE('',#675,#676);
#675 = CARTESIAN_POINT('',(0.,0.));
#676 = VECTOR('',#677,1.);
#677 = DIRECTION('',(1.,0.));
#678 = ( GEOMETRIC_REPRESENTATION_CONTEXT(2) 
PARAMETRIC_REPRESENTATION_CONTEXT() REPRESENTATION_CONTEXT('2D SPACE',''
  ) );
#679 = PCURVE('',#680,#685);
#680 = PLANE('',#681);
#681 = AXIS2_PLACEMENT_3D('',#682,#683,#684);
#682 = CARTESIAN_POINT('',(3.947459643112E-16,2.4,31.2));
#683 = DIRECTION('',(-0.,1.,-1.110223024625E-16));
#684 = DIRECTION('',(-1.,0.,0.));
#685 = DEFINITIONAL_REPRESENTATION('',(#686),#690);
#686 = CIRCLE('',#687,12.);
#687 = AXIS2_PLACEMENT_2D('',#688,#689);
#688 = CARTESIAN_POINT('',(3.947459643112E-16,1.224646799147E-16));
#689 = DIRECTION('',(-1.,0.));
#690 = ( GEOMETRIC_REPRESENTATION_CONTEXT(2) 
PARAMETRIC_REPRESENTATION_CONTEXT() REPRESENTATION_CONTEXT('2D SPACE',''
  ) );
#691 = ORIENTED_EDGE('',*,*,#692,.T.);
#692 = EDGE_CURVE('',#664,#693,#695,.T.);
#693 = VERTEX_POINT('',#694);
#694 = CARTESIAN_POINT('',(12.,-2.4,31.2));
#695 = SEAM_CURVE('',#696,(#700,#707),.PCURVE_S1.);
#696 = LINE('',#697,#698);
#697 = CARTESIAN_POINT('',(12.,2.4,31.2));
#698 = VECTOR('',#699,1.);
#699 = DIRECTION('',(0.,-1.,1.110223024625E-16));
#700 = PCURVE('',#268,#701);
#701 = DEFINITIONAL_REPRESENTATION('',(#702),#706);
#702 = LINE('',#703,#704);
#703 = CARTESIAN_POINT('',(0.,0.));
#704 = VECTOR('',#705,1.);
#705 = DIRECTION('',(0.,-1.));
#706 = ( GEOMETRIC_REPRESENTATION_CONTEXT(2) 
PARAMETRIC_REPRESENTATION_CONTEXT() REPRESENTATION_CONTEXT('2D SPACE',''
  ) );
#707 = PCURVE('',#268,#708);
#708 = DEFINITIONAL_REPRESENTATION('',(#709),#713);
#709 = LINE('',#710,#711);
#710 = CARTESIAN_POINT('',(6.28318530718,0.));
#711 = VECTOR('',#712,1.);
#712 = DIRECTION('',(0.,-1.));
#713 = ( GEOMETRIC_REPRESENTATION_CONTEXT(2) 
PARAMETRIC_REPRESENTATION_CONTEXT() REPRESENTATION_CONTEXT('2D SPACE',''
  ) );
#714 = ORIENTED_EDGE('',*,*,#715,.T.);
#715 = EDGE_CURVE('',#693,#157,#716,.T.);
#716 = SURFACE_CURVE('',#717,(#722,#729),.PCURVE_S1.);
#717 = CIRCLE('',#718,12.);
#718 = AXIS2_PLACEMENT_3D('',#719,#720,#721);
#719 = CARTESIAN_POINT('',(0.,-2.4,31.2));
#720 = DIRECTION('',(0.,1.,-1.110223024625E-16));
#721 = DIRECTION('',(1.,0.,0.));
#722 = PCURVE('',#268,#723);
#723 = DEFINITIONAL_REPRESENTATION('',(#724),#728);
#724 = LINE('',#725,#726);
#725 = CARTESIAN_POINT('',(0.,-4.8));
#726 = VECTOR('',#727,1.);
#727 = DIRECTION('',(1.,0.));
#728 = ( GEOMETRIC_REPRESENTATION_CONTEXT(2) 
PARAMETRIC_REPRESENTATION_CONTEXT() REPRESENTATION_CONTEXT('2D SPACE',''
  ) );
#729 = PCURVE('',#730,#735);
#730 = PLANE('',#731);
#731 = AXIS2_PLACEMENT_3D('',#732,#733,#734);
#732 = CARTESIAN_POINT('',(3.947459643112E-16,-2.4,31.2));
#733 = DIRECTION('',(-0.,1.,-1.110223024625E-16));
#734 = DIRECTION('',(-1.,0.,0.));
#735 = DEFINITIONAL_REPRESENTATION('',(#736),#740);
#736 = CIRCLE('',#737,12.);
#737 = AXIS2_PLACEMENT_2D('',#738,#739);
#738 = CARTESIAN_POINT('',(3.947459643112E-16,1.224646799147E-16));
#739 = DIRECTION('',(-1.,0.));
#740 = ( GEOMETRIC_REPRESENTATION_CONTEXT(2) 
PARAMETRIC_REPRESENTATION_CONTEXT() REPRESENTATION_CONTEXT('2D SPACE',''
  ) );
#741 = ORIENTED_EDGE('',*,*,#156,.T.);
#742 = ORIENTED_EDGE('',*,*,#495,.T.);
#743 = ORIENTED_EDGE('',*,*,#328,.T.);
#744 = ORIENTED_EDGE('',*,*,#745,.T.);
#745 = EDGE_CURVE('',#157,#693,#746,.T.);
#746 = SURFACE_CURVE('',#747,(#752,#759),.PCURVE_S1.);
#747 = CIRCLE('',#748,12.);
#748 = AXIS2_PLACEMENT_3D('',#749,#750,#751);
#749 = CARTESIAN_POINT('',(0.,-2.4,31.2));
#750 = DIRECTION('',(0.,1.,-1.110223024625E-16));
#751 = DIRECTION('',(6.123233995737E-17,-1.110223024625E-16,-1.));
#752 = PCURVE('',#268,#753);
#753 = DEFINITIONAL_REPRESENTATION('',(#754),#758);
#754 = LINE('',#755,#756);
#755 = CARTESIAN_POINT('',(1.570796326795,-4.8));
#756 = VECTOR('',#757,1.);
#757 = DIRECTION('',(1.,0.));
#758 = ( GEOMETRIC_REPRESENTATION_CONTEXT(2) 
PARAMETRIC_REPRESENTATION_CONTEXT() REPRESENTATION_CONTEXT('2D SPACE',''
  ) );
#759 = PCURVE('',#730,#760);
#760 = DEFINITIONAL_REPRESENTATION('',(#761),#765);
#761 = CIRCLE('',#762,12.);
#762 = AXIS2_PLACEMENT_2D('',#763,#764);
#763 = CARTESIAN_POINT('',(3.947459643112E-16,1.224646799147E-16));
#764 = DIRECTION('',(-6.123233995737E-17,-1.));
#765 = ( GEOMETRIC_REPRESENTATION_CONTEXT(2) 
PARAMETRIC_REPRESENTATION_CONTEXT() REPRESENTATION_CONTEXT('2D SPACE',''
  ) );
#766 = ORIENTED_EDGE('',*,*,#692,.F.);
#767 = ORIENTED_EDGE('',*,*,#768,.T.);
#768 = EDGE_CURVE('',#664,#329,#769,.T.);
#769 = SURFACE_CURVE('',#770,(#775,#782),.PCURVE_S1.);
#770 = CIRCLE('',#771,12.);
#771 = AXIS2_PLACEMENT_3D('',#772,#773,#774);
#772 = CARTESIAN_POINT('',(0.,2.4,31.2));
#773 = DIRECTION('',(0.,-1.,1.110223024625E-16));
#774 = DIRECTION('',(1.,0.,0.));
#775 = PCURVE('',#268,#776);
#776 = DEFINITIONAL_REPRESENTATION('',(#777),#781);
#777 = LINE('',#778,#779);
#778 = CARTESIAN_POINT('',(6.28318530718,0.));
#779 = VECTOR('',#780,1.);
#780 = DIRECTION('',(-1.,-0.));
#781 = ( GEOMETRIC_REPRESENTATION_CONTEXT(2) 
PARAMETRIC_REPRESENTATION_CONTEXT() REPRESENTATION_CONTEXT('2D SPACE',''
  ) );
#782 = PCURVE('',#680,#783);
#783 = DEFINITIONAL_REPRESENTATION('',(#784),#792);
#784 = ( BOUNDED_CURVE() B_SPLINE_CURVE(2,(#785,#786,#787,#788,#789,#790
,#791),.UNSPECIFIED.,.T.,.F.) B_SPLINE_CURVE_WITH_KNOTS((1,2,2,2,2,1),(
    -2.094395102393,0.,2.094395102393,4.188790204786,6.28318530718,
8.377580409573),.UNSPECIFIED.) CURVE() GEOMETRIC_REPRESENTATION_ITEM() 
RATIONAL_B_SPLINE_CURVE((1.,0.5,1.,0.5,1.,0.5,1.)) REPRESENTATION_ITEM(
  '') );
#785 = CARTESIAN_POINT('',(-12.,1.224646799147E-16));
#786 = CARTESIAN_POINT('',(-12.,20.784609690827));
#787 = CARTESIAN_POINT('',(6.,10.392304845413));
#788 = CARTESIAN_POINT('',(24.,3.061616997868E-15));
#789 = CARTESIAN_POINT('',(6.,-10.39230484541));
#790 = CARTESIAN_POINT('',(-12.,-20.78460969082));
#791 = CARTESIAN_POINT('',(-12.,1.224646799147E-16));
#792 = ( GEOMETRIC_REPRESENTATION_CONTEXT(2) 
PARAMETRIC_REPRESENTATION_CONTEXT() REPRESENTATION_CONTEXT('2D SPACE',''
  ) );
#793 = ADVANCED_FACE('',(#794,#798),#730,.F.);
#794 = FACE_BOUND('',#795,.F.);
#795 = EDGE_LOOP('',(#796,#797));
#796 = ORIENTED_EDGE('',*,*,#745,.T.);
#797 = ORIENTED_EDGE('',*,*,#715,.T.);
#798 = FACE_BOUND('',#799,.F.);
#799 = EDGE_LOOP('',(#800));
#800 = ORIENTED_EDGE('',*,*,#801,.F.);
#801 = EDGE_CURVE('',#802,#802,#804,.T.);
#802 = VERTEX_POINT('',#803);
#803 = CARTESIAN_POINT('',(7.,-2.4,31.2));
#804 = SURFACE_CURVE('',#805,(#810,#817),.PCURVE_S1.);
#805 = CIRCLE('',#806,7.);
#806 = AXIS2_PLACEMENT_3D('',#807,#808,#809);
#807 = CARTESIAN_POINT('',(0.,-2.4,31.2));
#808 = DIRECTION('',(0.,1.,-1.110223024625E-16));
#809 = DIRECTION('',(1.,0.,0.));
#810 = PCURVE('',#730,#811);
#811 = DEFINITIONAL_REPRESENTATION('',(#812),#816);
#812 = CIRCLE('',#813,7.);
#813 = AXIS2_PLACEMENT_2D('',#814,#815);
#814 = CARTESIAN_POINT('',(3.947459643112E-16,1.224646799147E-16));
#815 = DIRECTION('',(-1.,0.));
#816 = ( GEOMETRIC_REPRESENTATION_CONTEXT(2) 
PARAMETRIC_REPRESENTATION_CONTEXT() REPRESENTATION_CONTEXT('2D SPACE',''
  ) );
#817 = PCURVE('',#818,#823);
#818 = CYLINDRICAL_SURFACE('',#819,7.);
#819 = AXIS2_PLACEMENT_3D('',#820,#821,#822);
#820 = CARTESIAN_POINT('',(0.,2.4,31.2));
#821 = DIRECTION('',(0.,1.,-1.110223024625E-16));
#822 = DIRECTION('',(1.,0.,0.));
#823 = DEFINITIONAL_REPRESENTATION('',(#824),#828);
#824 = LINE('',#825,#826);
#825 = CARTESIAN_POINT('',(0.,-4.8));
#826 = VECTOR('',#827,1.);
#827 = DIRECTION('',(1.,0.));
#828 = ( GEOMETRIC_REPRESENTATION_CONTEXT(2) 
PARAMETRIC_REPRESENTATION_CONTEXT() REPRESENTATION_CONTEXT('2D SPACE',''
  ) );
#829 = ADVANCED_FACE('',(#830),#818,.F.);
#830 = FACE_BOUND('',#831,.F.);
#831 = EDGE_LOOP('',(#832,#855,#856,#857));
#832 = ORIENTED_EDGE('',*,*,#833,.T.);
#833 = EDGE_CURVE('',#834,#802,#836,.T.);
#834 = VERTEX_POINT('',#835);
#835 = CARTESIAN_POINT('',(7.,2.4,31.2));
#836 = SEAM_CURVE('',#837,(#841,#848),.PCURVE_S1.);
#837 = LINE('',#838,#839);
#838 = CARTESIAN_POINT('',(7.,2.4,31.2));
#839 = VECTOR('',#840,1.);
#840 = DIRECTION('',(0.,-1.,1.110223024625E-16));
#841 = PCURVE('',#818,#842);
#842 = DEFINITIONAL_REPRESENTATION('',(#843),#847);
#843 = LINE('',#844,#845);
#844 = CARTESIAN_POINT('',(0.,0.));
#845 = VECTOR('',#846,1.);
#846 = DIRECTION('',(0.,-1.));
#847 = ( GEOMETRIC_REPRESENTATION_CONTEXT(2) 
PARAMETRIC_REPRESENTATION_CONTEXT() REPRESENTATION_CONTEXT('2D SPACE',''
  ) );
#848 = PCURVE('',#818,#849);
#849 = DEFINITIONAL_REPRESENTATION('',(#850),#854);
#850 = LINE('',#851,#852);
#851 = CARTESIAN_POINT('',(6.28318530718,0.));
#852 = VECTOR('',#853,1.);
#853 = DIRECTION('',(0.,-1.));
#854 = ( GEOMETRIC_REPRESENTATION_CONTEXT(2) 
PARAMETRIC_REPRESENTATION_CONTEXT() REPRESENTATION_CONTEXT('2D SPACE',''
  ) );
#855 = ORIENTED_EDGE('',*,*,#801,.T.);
#856 = ORIENTED_EDGE('',*,*,#833,.F.);
#857 = ORIENTED_EDGE('',*,*,#858,.T.);
#858 = EDGE_CURVE('',#834,#834,#859,.T.);
#859 = SURFACE_CURVE('',#860,(#865,#872),.PCURVE_S1.);
#860 = CIRCLE('',#861,7.);
#861 = AXIS2_PLACEMENT_3D('',#862,#863,#864);
#862 = CARTESIAN_POINT('',(-4.440892098501E-16,2.4,31.2));
#863 = DIRECTION('',(0.,-1.,1.268826313857E-16));
#864 = DIRECTION('',(1.,-1.287936171789E-31,-1.015061051086E-15));
#865 = PCURVE('',#818,#866);
#866 = DEFINITIONAL_REPRESENTATION('',(#867),#871);
#867 = LINE('',#868,#869);
#868 = CARTESIAN_POINT('',(6.28318530718,0.));
#869 = VECTOR('',#870,1.);
#870 = DIRECTION('',(-1.,-0.));
#871 = ( GEOMETRIC_REPRESENTATION_CONTEXT(2) 
PARAMETRIC_REPRESENTATION_CONTEXT() REPRESENTATION_CONTEXT('2D SPACE',''
  ) );
#872 = PCURVE('',#680,#873);
#873 = DEFINITIONAL_REPRESENTATION('',(#874),#882);
#874 = ( BOUNDED_CURVE() B_SPLINE_CURVE(2,(#875,#876,#877,#878,#879,#880
,#881),.UNSPECIFIED.,.T.,.F.) B_SPLINE_CURVE_WITH_KNOTS((1,2,2,2,2,1),(
    -2.094395102393,0.,2.094395102393,4.188790204786,6.28318530718,
8.377580409573),.UNSPECIFIED.) CURVE() GEOMETRIC_REPRESENTATION_ITEM() 
RATIONAL_B_SPLINE_CURVE((1.,0.5,1.,0.5,1.,0.5,1.)) REPRESENTATION_ITEM(
  '') );
#875 = CARTESIAN_POINT('',(-7.,1.224646799147E-16));
#876 = CARTESIAN_POINT('',(-7.,12.124355652982));
#877 = CARTESIAN_POINT('',(3.5,6.062177826491));
#878 = CARTESIAN_POINT('',(14.,2.315325227152E-14));
#879 = CARTESIAN_POINT('',(3.5,-6.062177826491));
#880 = CARTESIAN_POINT('',(-7.,-12.12435565298));
#881 = CARTESIAN_POINT('',(-7.,1.224646799147E-16));
#882 = ( GEOMETRIC_REPRESENTATION_CONTEXT(2) 
PARAMETRIC_REPRESENTATION_CONTEXT() REPRESENTATION_CONTEXT('2D SPACE',''
  ) );
#883 = ADVANCED_FACE('',(#884,#888),#680,.T.);
#884 = FACE_BOUND('',#885,.T.);
#885 = EDGE_LOOP('',(#886,#887));
#886 = ORIENTED_EDGE('',*,*,#768,.F.);
#887 = ORIENTED_EDGE('',*,*,#663,.T.);
#888 = FACE_BOUND('',#889,.T.);
#889 = EDGE_LOOP('',(#890));
#890 = ORIENTED_EDGE('',*,*,#858,.T.);
#891 = ( GEOMETRIC_REPRESENTATION_CONTEXT(3) 
GLOBAL_UNCERTAINTY_ASSIGNED_CONTEXT((#895)) GLOBAL_UNIT_ASSIGNED_CONTEXT
((#892,#893,#894)) REPRESENTATION_CONTEXT('Context #1',
  '3D Context with UNIT and UNCERTAINTY') );
#892 = ( LENGTH_UNIT() NAMED_UNIT(*) SI_UNIT(.MILLI.,.METRE.) );
#893 = ( NAMED_UNIT(*) PLANE_ANGLE_UNIT() SI_UNIT($,.RADIAN.) );
#894 = ( NAMED_UNIT(*) SI_UNIT($,.STERADIAN.) SOLID_ANGLE_UNIT() );
#895 = UNCERTAINTY_MEASURE_WITH_UNIT(LENGTH_MEASURE(2.E-05),#892,
  'distance_accuracy_value','confusion accuracy');
#896 = CONTEXT_DEPENDENT_SHAPE_REPRESENTATION(#897,#899);
#897 = ( REPRESENTATION_RELATIONSHIP('','',#32,#10) 
REPRESENTATION_RELATIONSHIP_WITH_TRANSFORMATION(#898) 
SHAPE_REPRESENTATION_RELATIONSHIP() );
#898 = ITEM_DEFINED_TRANSFORMATION('','',#11,#15);
#899 = PRODUCT_DEFINITION_SHAPE('Placement','Placement of an item',#900
  );
#900 = NEXT_ASSEMBLY_USAGE_OCCURRENCE('1','Shape 1','',#5,#27,$);
#901 = PRODUCT_RELATED_PRODUCT_CATEGORY('part',$,(#29));
ENDSEC;
END-ISO-10303-21;
