<svg xmlns="http://www.w3.org/2000/svg" viewBox="0 0 512 512">
    <path d="M160-20q90-90 180 0l180 180q90 90 0 180L340 520q-90 90-180 0L-20 340q-90-90 0-180Z"
        style="fill:#426ee6;paint-order:fill;stroke-width:0;transform-box:fill-box;transform-origin:50% 50%"
        transform="rotate(45 -4.243 10.243)" />
    <path
        d="m64.115 196.421-8.531-.061c-9.477-.068-14.216-3.438-14.216-10.112 0-2.384 2.369-6.896 7.108-13.536 39.334-53.112 78.667-81.673 118-85.683.474-.473 44.783-.395 132.928.232 87.67.625 132.927 1.425 135.77 2.398 5.213.514 10.426 2.935 15.639 7.262 5.212 4.328 7.819 11.497 7.819 21.508 0 20.499-9.004 35.213-27.012 44.142-5.213 2.347-11.137 3.735-17.771 4.164-6.635.429-29.145.507-67.53.234l-70.373-.501v1.43c-.474.473-3.08 17.139-7.82 49.999-4.739 32.859-9.951 66.669-15.638 101.428-5.687 34.76-9.004 53.567-9.952 56.42-2.843 10.468-8.767 19.245-17.771 26.331-11.373 7.546-22.746 11.279-34.12 11.198-10.9-.077-19.666-3.239-26.301-9.483-6.634-6.244-10.189-14.612-10.663-25.104 0-4.29.237-7.387.711-9.29.473-2.381 11.61-35.433 33.409-99.158 21.8-63.724 33.647-97.963 35.542-102.716 0-.954-12.084-1.517-36.252-1.689l-13.506-.096c-21.799-.156-39.097.913-51.892 3.205-12.795 2.293-24.169 8.647-34.12 19.064l-7.82 7.81-15.638.604Z"
        style="fill:#fff" />
</svg>
