ISO-10303-21;
HEADER;
FILE_DESCRIPTION(('GeoSpec SB5 second-producer conformance fixture: hand-authored AP242 sharing zero code with tau exporters; cubeB carries native face and datum evidence under a non-identity occurrence transform (rotate 90deg about Z + translate 30mm X)'),'2;1');
FILE_NAME('second-producer-transformed.step','2026-07-03T00:00:00',('GeoSpec'),('SecondProducer'),'HandAuthored','HandAuthored','');
FILE_SCHEMA(('AP242_MANAGED_MODEL_BASED_3D_ENGINEERING_MIM_LF { 1 0 10303 442 3 1 4 }'));
ENDSEC;
DATA;
#1=APPLICATION_CONTEXT('managed model based 3d engineering');
#2=APPLICATION_PROTOCOL_DEFINITION('international standard','ap242_managed_model_based_3d_engineering',2020,#1);
#3=PRODUCT_CONTEXT('',#1,'mechanical');
#6=PRODUCT_DEFINITION_CONTEXT('part definition',#1,'design');
#400=(GEOMETRIC_REPRESENTATION_CONTEXT(3) GLOBAL_UNCERTAINTY_ASSIGNED_CONTEXT((#404)) GLOBAL_UNIT_ASSIGNED_CONTEXT((#401,#402,#403)) REPRESENTATION_CONTEXT('','3D'));
#401=(LENGTH_UNIT() NAMED_UNIT(*) SI_UNIT(.MILLI.,.METRE.));
#402=(NAMED_UNIT(*) PLANE_ANGLE_UNIT() SI_UNIT($,.RADIAN.));
#403=(NAMED_UNIT(*) SI_UNIT($,.STERADIAN.) SOLID_ANGLE_UNIT());
#404=UNCERTAINTY_MEASURE_WITH_UNIT(LENGTH_MEASURE(1.E-7),#401,'distance_accuracy_value','');
#500=PRODUCT('twoCubeAssembly','twoCubeAssembly','',(#3));
#501=PRODUCT_DEFINITION_FORMATION('','',#500);
#502=PRODUCT_DEFINITION('','',#501,#6);
#503=PRODUCT_DEFINITION_SHAPE('','',#502);
#504=SHAPE_DEFINITION_REPRESENTATION(#503,#505);
#505=SHAPE_REPRESENTATION('twoCubeAssembly',(#506,#514,#614),#400);
#507=CARTESIAN_POINT('',(0.,0.,0.));
#508=DIRECTION('',(0.,0.,1.));
#509=DIRECTION('',(1.,0.,0.));
#506=AXIS2_PLACEMENT_3D('',#507,#508,#509);
#514=AXIS2_PLACEMENT_3D('',#507,#508,#509);
#614=AXIS2_PLACEMENT_3D('',#615,#508,#617);
#615=CARTESIAN_POINT('',(30.,0.,0.));
#617=DIRECTION('',(0.,1.,0.));
#4=PRODUCT('cubeA','cubeA','',(#3));
#5=PRODUCT_DEFINITION_FORMATION('','',#4);
#7=PRODUCT_DEFINITION('','',#5,#6);
#8=PRODUCT_DEFINITION_SHAPE('','',#7);
#9=SHAPE_DEFINITION_REPRESENTATION(#8,#10);
#10=ADVANCED_BREP_SHAPE_REPRESENTATION('cubeA',(#111,#513),#400);
#513=AXIS2_PLACEMENT_3D('',#507,#508,#509);
#111=MANIFOLD_SOLID_BREP('cubeA',#112);
#112=CLOSED_SHELL('',(#1100,#1110,#1120,#1130,#1140,#1150));
#120=CARTESIAN_POINT('',(-5.,-5.,-5.));
#121=CARTESIAN_POINT('',(5.,-5.,-5.));
#122=CARTESIAN_POINT('',(5.,5.,-5.));
#123=CARTESIAN_POINT('',(-5.,5.,-5.));
#124=CARTESIAN_POINT('',(-5.,-5.,5.));
#125=CARTESIAN_POINT('',(5.,-5.,5.));
#126=CARTESIAN_POINT('',(5.,5.,5.));
#127=CARTESIAN_POINT('',(-5.,5.,5.));
#130=VERTEX_POINT('',#120);
#131=VERTEX_POINT('',#121);
#132=VERTEX_POINT('',#122);
#133=VERTEX_POINT('',#123);
#134=VERTEX_POINT('',#124);
#135=VERTEX_POINT('',#125);
#136=VERTEX_POINT('',#126);
#137=VERTEX_POINT('',#127);
#140=DIRECTION('',(1.,0.,0.));
#141=DIRECTION('',(0.,1.,0.));
#142=DIRECTION('',(0.,0.,1.));
#150=VECTOR('',#140,10.);
#151=VECTOR('',#141,10.);
#152=VECTOR('',#142,10.);
#160=LINE('',#120,#150);
#161=LINE('',#121,#151);
#162=LINE('',#123,#150);
#163=LINE('',#120,#151);
#164=LINE('',#124,#150);
#165=LINE('',#125,#151);
#166=LINE('',#127,#150);
#167=LINE('',#124,#151);
#168=LINE('',#120,#152);
#169=LINE('',#121,#152);
#170=LINE('',#122,#152);
#171=LINE('',#123,#152);
#180=EDGE_CURVE('',#130,#131,#160,.T.);
#181=EDGE_CURVE('',#131,#132,#161,.T.);
#182=EDGE_CURVE('',#133,#132,#162,.T.);
#183=EDGE_CURVE('',#130,#133,#163,.T.);
#184=EDGE_CURVE('',#134,#135,#164,.T.);
#185=EDGE_CURVE('',#135,#136,#165,.T.);
#186=EDGE_CURVE('',#137,#136,#166,.T.);
#187=EDGE_CURVE('',#134,#137,#167,.T.);
#188=EDGE_CURVE('',#130,#134,#168,.T.);
#189=EDGE_CURVE('',#131,#135,#169,.T.);
#190=EDGE_CURVE('',#132,#136,#170,.T.);
#191=EDGE_CURVE('',#133,#137,#171,.T.);
#1100=ADVANCED_FACE('',(#1101),#1105,.F.);
#1101=FACE_OUTER_BOUND('',#1102,.T.);
#1102=EDGE_LOOP('',(#11030,#11031,#11032,#11033));
#11030=ORIENTED_EDGE('',*,*,#180,.T.);
#11031=ORIENTED_EDGE('',*,*,#181,.T.);
#11032=ORIENTED_EDGE('',*,*,#182,.F.);
#11033=ORIENTED_EDGE('',*,*,#183,.F.);
#1105=PLANE('',#1106);
#1106=AXIS2_PLACEMENT_3D('',#120,#142,#140);
#1110=ADVANCED_FACE('face.a',(#1111),#1115,.T.);
#1111=FACE_OUTER_BOUND('',#1112,.T.);
#1112=EDGE_LOOP('',(#11130,#11131,#11132,#11133));
#11130=ORIENTED_EDGE('',*,*,#184,.T.);
#11131=ORIENTED_EDGE('',*,*,#185,.T.);
#11132=ORIENTED_EDGE('',*,*,#186,.F.);
#11133=ORIENTED_EDGE('',*,*,#187,.F.);
#1115=PLANE('',#1116);
#1116=AXIS2_PLACEMENT_3D('',#124,#142,#140);
#1120=ADVANCED_FACE('',(#1121),#1125,.F.);
#1121=FACE_OUTER_BOUND('',#1122,.T.);
#1122=EDGE_LOOP('',(#11230,#11231,#11232,#11233));
#11230=ORIENTED_EDGE('',*,*,#180,.T.);
#11231=ORIENTED_EDGE('',*,*,#189,.T.);
#11232=ORIENTED_EDGE('',*,*,#184,.F.);
#11233=ORIENTED_EDGE('',*,*,#188,.F.);
#1125=PLANE('',#1126);
#1126=AXIS2_PLACEMENT_3D('',#120,#141,#140);
#1130=ADVANCED_FACE('',(#1131),#1135,.T.);
#1131=FACE_OUTER_BOUND('',#1132,.T.);
#1132=EDGE_LOOP('',(#11330,#11331,#11332,#11333));
#11330=ORIENTED_EDGE('',*,*,#181,.T.);
#11331=ORIENTED_EDGE('',*,*,#190,.T.);
#11332=ORIENTED_EDGE('',*,*,#185,.F.);
#11333=ORIENTED_EDGE('',*,*,#189,.F.);
#1135=PLANE('',#1136);
#1136=AXIS2_PLACEMENT_3D('',#121,#140,#141);
#1140=ADVANCED_FACE('',(#1141),#1145,.T.);
#1141=FACE_OUTER_BOUND('',#1142,.T.);
#1142=EDGE_LOOP('',(#11430,#11431,#11432,#11433));
#11430=ORIENTED_EDGE('',*,*,#182,.T.);
#11431=ORIENTED_EDGE('',*,*,#190,.T.);
#11432=ORIENTED_EDGE('',*,*,#186,.F.);
#11433=ORIENTED_EDGE('',*,*,#191,.F.);
#1145=PLANE('',#1146);
#1146=AXIS2_PLACEMENT_3D('',#123,#141,#140);
#1150=ADVANCED_FACE('',(#1151),#1155,.F.);
#1151=FACE_OUTER_BOUND('',#1152,.T.);
#1152=EDGE_LOOP('',(#11530,#11531,#11532,#11533));
#11530=ORIENTED_EDGE('',*,*,#183,.T.);
#11531=ORIENTED_EDGE('',*,*,#191,.T.);
#11532=ORIENTED_EDGE('',*,*,#187,.F.);
#11533=ORIENTED_EDGE('',*,*,#188,.F.);
#1155=PLANE('',#1156);
#1156=AXIS2_PLACEMENT_3D('',#120,#140,#141);
#2004=PRODUCT('cubeB','cubeB','',(#3));
#2005=PRODUCT_DEFINITION_FORMATION('','',#2004);
#2007=PRODUCT_DEFINITION('','',#2005,#6);
#2008=PRODUCT_DEFINITION_SHAPE('','',#2007);
#2009=SHAPE_DEFINITION_REPRESENTATION(#2008,#2010);
#2010=ADVANCED_BREP_SHAPE_REPRESENTATION('cubeB',(#211,#2513),#400);
#2513=AXIS2_PLACEMENT_3D('',#507,#508,#509);
#211=MANIFOLD_SOLID_BREP('cubeB',#212);
#212=CLOSED_SHELL('',(#2100,#2110,#2120,#2130,#2140,#2150));
#220=CARTESIAN_POINT('',(-5.,-5.,-5.));
#221=CARTESIAN_POINT('',(5.,-5.,-5.));
#222=CARTESIAN_POINT('',(5.,5.,-5.));
#223=CARTESIAN_POINT('',(-5.,5.,-5.));
#224=CARTESIAN_POINT('',(-5.,-5.,5.));
#225=CARTESIAN_POINT('',(5.,-5.,5.));
#226=CARTESIAN_POINT('',(5.,5.,5.));
#227=CARTESIAN_POINT('',(-5.,5.,5.));
#230=VERTEX_POINT('',#220);
#231=VERTEX_POINT('',#221);
#232=VERTEX_POINT('',#222);
#233=VERTEX_POINT('',#223);
#234=VERTEX_POINT('',#224);
#235=VERTEX_POINT('',#225);
#236=VERTEX_POINT('',#226);
#237=VERTEX_POINT('',#227);
#240=DIRECTION('',(1.,0.,0.));
#241=DIRECTION('',(0.,1.,0.));
#242=DIRECTION('',(0.,0.,1.));
#250=VECTOR('',#240,10.);
#251=VECTOR('',#241,10.);
#252=VECTOR('',#242,10.);
#260=LINE('',#220,#250);
#261=LINE('',#221,#251);
#262=LINE('',#223,#250);
#263=LINE('',#220,#251);
#264=LINE('',#224,#250);
#265=LINE('',#225,#251);
#266=LINE('',#227,#250);
#267=LINE('',#224,#251);
#268=LINE('',#220,#252);
#269=LINE('',#221,#252);
#270=LINE('',#222,#252);
#271=LINE('',#223,#252);
#280=EDGE_CURVE('',#230,#231,#260,.T.);
#281=EDGE_CURVE('',#231,#232,#261,.T.);
#282=EDGE_CURVE('',#233,#232,#262,.T.);
#283=EDGE_CURVE('',#230,#233,#263,.T.);
#284=EDGE_CURVE('',#234,#235,#264,.T.);
#285=EDGE_CURVE('',#235,#236,#265,.T.);
#286=EDGE_CURVE('',#237,#236,#266,.T.);
#287=EDGE_CURVE('',#234,#237,#267,.T.);
#288=EDGE_CURVE('',#230,#234,#268,.T.);
#289=EDGE_CURVE('',#231,#235,#269,.T.);
#290=EDGE_CURVE('',#232,#236,#270,.T.);
#291=EDGE_CURVE('',#233,#237,#271,.T.);
#2100=ADVANCED_FACE('',(#2101),#2105,.F.);
#2101=FACE_OUTER_BOUND('',#2102,.T.);
#2102=EDGE_LOOP('',(#21030,#21031,#21032,#21033));
#21030=ORIENTED_EDGE('',*,*,#280,.T.);
#21031=ORIENTED_EDGE('',*,*,#281,.T.);
#21032=ORIENTED_EDGE('',*,*,#282,.F.);
#21033=ORIENTED_EDGE('',*,*,#283,.F.);
#2105=PLANE('',#2106);
#2106=AXIS2_PLACEMENT_3D('',#220,#242,#240);
#2110=ADVANCED_FACE('',(#2111),#2115,.T.);
#2111=FACE_OUTER_BOUND('',#2112,.T.);
#2112=EDGE_LOOP('',(#21130,#21131,#21132,#21133));
#21130=ORIENTED_EDGE('',*,*,#284,.T.);
#21131=ORIENTED_EDGE('',*,*,#285,.T.);
#21132=ORIENTED_EDGE('',*,*,#286,.F.);
#21133=ORIENTED_EDGE('',*,*,#287,.F.);
#2115=PLANE('',#2116);
#2116=AXIS2_PLACEMENT_3D('',#224,#242,#240);
#2120=ADVANCED_FACE('',(#2121),#2125,.F.);
#2121=FACE_OUTER_BOUND('',#2122,.T.);
#2122=EDGE_LOOP('',(#21230,#21231,#21232,#21233));
#21230=ORIENTED_EDGE('',*,*,#280,.T.);
#21231=ORIENTED_EDGE('',*,*,#289,.T.);
#21232=ORIENTED_EDGE('',*,*,#284,.F.);
#21233=ORIENTED_EDGE('',*,*,#288,.F.);
#2125=PLANE('',#2126);
#2126=AXIS2_PLACEMENT_3D('',#220,#241,#240);
#2130=ADVANCED_FACE('face.b',(#2131),#2135,.T.);
#2131=FACE_OUTER_BOUND('',#2132,.T.);
#2132=EDGE_LOOP('',(#21330,#21331,#21332,#21333));
#21330=ORIENTED_EDGE('',*,*,#281,.T.);
#21331=ORIENTED_EDGE('',*,*,#290,.T.);
#21332=ORIENTED_EDGE('',*,*,#285,.F.);
#21333=ORIENTED_EDGE('',*,*,#289,.F.);
#2135=PLANE('',#2136);
#2136=AXIS2_PLACEMENT_3D('',#221,#240,#241);
#2140=ADVANCED_FACE('',(#2141),#2145,.T.);
#2141=FACE_OUTER_BOUND('',#2142,.T.);
#2142=EDGE_LOOP('',(#21430,#21431,#21432,#21433));
#21430=ORIENTED_EDGE('',*,*,#282,.T.);
#21431=ORIENTED_EDGE('',*,*,#290,.T.);
#21432=ORIENTED_EDGE('',*,*,#286,.F.);
#21433=ORIENTED_EDGE('',*,*,#291,.F.);
#2145=PLANE('',#2146);
#2146=AXIS2_PLACEMENT_3D('',#223,#241,#240);
#2150=ADVANCED_FACE('',(#2151),#2155,.F.);
#2151=FACE_OUTER_BOUND('',#2152,.T.);
#2152=EDGE_LOOP('',(#21530,#21531,#21532,#21533));
#21530=ORIENTED_EDGE('',*,*,#283,.T.);
#21531=ORIENTED_EDGE('',*,*,#291,.T.);
#21532=ORIENTED_EDGE('',*,*,#287,.F.);
#21533=ORIENTED_EDGE('',*,*,#288,.F.);
#2155=PLANE('',#2156);
#2156=AXIS2_PLACEMENT_3D('',#220,#240,#241);
#600=NEXT_ASSEMBLY_USAGE_OCCURRENCE('NAUO1','cubeA','cubeA',#502,#7,'');
#601=PRODUCT_DEFINITION_SHAPE('Placement','Placement of cubeA',#600);
#602=CONTEXT_DEPENDENT_SHAPE_REPRESENTATION(#603,#601);
#603=(REPRESENTATION_RELATIONSHIP('','',#10,#505) REPRESENTATION_RELATIONSHIP_WITH_TRANSFORMATION(#604) SHAPE_REPRESENTATION_RELATIONSHIP());
#604=ITEM_DEFINED_TRANSFORMATION('','',#513,#514);
#610=NEXT_ASSEMBLY_USAGE_OCCURRENCE('NAUO2','cubeB','cubeB',#502,#2007,'');
#611=PRODUCT_DEFINITION_SHAPE('Placement','Placement of cubeB',#610);
#612=CONTEXT_DEPENDENT_SHAPE_REPRESENTATION(#613,#611);
#613=(REPRESENTATION_RELATIONSHIP('','',#2010,#505) REPRESENTATION_RELATIONSHIP_WITH_TRANSFORMATION(#616) SHAPE_REPRESENTATION_RELATIONSHIP());
#616=ITEM_DEFINED_TRANSFORMATION('','',#2513,#614);
#700=SHAPE_ASPECT('face.a','',#8,.T.);
#701=GEOMETRIC_ITEM_SPECIFIC_USAGE('','',#700,#10,(#1110));
#720=CONSTRUCTIVE_GEOMETRY_REPRESENTATION_RELATIONSHIP('geospec:datum','cubeA',#721,#10);
#721=CONSTRUCTIVE_GEOMETRY_REPRESENTATION('origin',(#722),#400);
#722=AXIS2_PLACEMENT_3D('origin',#723,#724,#725);
#723=CARTESIAN_POINT('',(0.,0.,0.));
#724=DIRECTION('',(0.,0.,1.));
#725=DIRECTION('',(1.,0.,0.));
#800=SHAPE_ASPECT('face.b','',#2008,.T.);
#801=GEOMETRIC_ITEM_SPECIFIC_USAGE('','',#800,#2010,(#2130));
#820=CONSTRUCTIVE_GEOMETRY_REPRESENTATION_RELATIONSHIP('geospec:datum','cubeB',#821,#2010);
#821=CONSTRUCTIVE_GEOMETRY_REPRESENTATION('frame',(#822),#400);
#822=AXIS2_PLACEMENT_3D('frame',#823,#824,#825);
#823=CARTESIAN_POINT('',(0.,0.,0.));
#824=DIRECTION('',(0.,0.,1.));
#825=DIRECTION('',(1.,0.,0.));
ENDSEC;
END-ISO-10303-21;
